<?xml version="1.0" encoding="UTF-8" standalone="no"?>
<!-- Created with Inkscape (http://www.inkscape.org/) -->

<svg
   xmlns:dc="http://purl.org/dc/elements/1.1/"
   xmlns:cc="http://creativecommons.org/ns#"
   xmlns:rdf="http://www.w3.org/1999/02/22-rdf-syntax-ns#"
   xmlns:svg="http://www.w3.org/2000/svg"
   xmlns="http://www.w3.org/2000/svg"
   xmlns:sodipodi="http://sodipodi.sourceforge.net/DTD/sodipodi-0.dtd"
   xmlns:inkscape="http://www.inkscape.org/namespaces/inkscape"
   width="300"
   height="299"
   viewBox="0 0 79.374998 79.110419"
   version="1.1"
   id="svg8"
   inkscape:version="0.92.1 r15371"
   sodipodi:docname="NPV.svg">
  <defs
     id="defs2">
    <clipPath
       id="clipPath4501"
       clipPathUnits="userSpaceOnUse">
      <path
         inkscape:connector-curvature="0"
         id="path4499"
         d="M 0,500 H 500 V 0 H 0 Z" />
    </clipPath>
  </defs>
  <sodipodi:namedview
     id="base"
     pagecolor="#ffffff"
     bordercolor="#666666"
     borderopacity="1.0"
     inkscape:pageopacity="0.0"
     inkscape:pageshadow="2"
     inkscape:zoom="0.35"
     inkscape:cx="400"
     inkscape:cy="217.14286"
     inkscape:document-units="mm"
     inkscape:current-layer="layer1"
     showgrid="false"
     units="px"
     inkscape:window-width="1366"
     inkscape:window-height="706"
     inkscape:window-x="-8"
     inkscape:window-y="-8"
     inkscape:window-maximized="1" />
  <metadata
     id="metadata5">
    <rdf:RDF>
      <cc:Work
         rdf:about="">
        <dc:format>image/svg+xml</dc:format>
        <dc:type
           rdf:resource="http://purl.org/dc/dcmitype/StillImage" />
        <dc:title></dc:title>
      </cc:Work>
    </rdf:RDF>
  </metadata>
  <g
     inkscape:label="Layer 1"
     inkscape:groupmode="layer"
     id="layer1"
     transform="translate(0,-217.88956)">
    <g
       transform="matrix(0.34249679,0,0,-0.34249826,-45.01086,345.61317)"
       inkscape:label="LogoNVP_curves"
       id="g4493">
      <g
         id="g4495">
        <g
           clip-path="url(#clipPath4501)"
           id="g4497">
          <g
             transform="translate(363.1738,257.813)"
             id="g4503">
            <path
               inkscape:connector-curvature="0"
               id="path4505"
               style="fill:#312089;fill-opacity:1;fill-rule:nonzero;stroke:none"
               d="m 0,0 c 0,63.997 -51.881,115.877 -115.877,115.877 -63.998,0 -115.877,-51.88 -115.877,-115.877 0,-63.997 51.879,-115.876 115.877,-115.876 C -51.881,-115.876 0,-63.997 0,0" />
          </g>
          <g
             transform="translate(332.9453,257.814)"
             id="g4507">
            <path
               inkscape:connector-curvature="0"
               id="path4509"
               style="fill:#ffffff;fill-opacity:1;fill-rule:nonzero;stroke:none"
               d="m 0,0 c 0,47.302 -38.348,85.648 -85.649,85.648 -47.302,0 -85.648,-38.346 -85.648,-85.648 0,-47.303 38.346,-85.649 85.648,-85.649 C -38.348,-85.649 0,-47.303 0,0" />
          </g>
          <g
             transform="translate(144.2417,225.417)"
             id="g4511">
            <path
               inkscape:connector-curvature="0"
               id="path4513"
               style="fill:#ffffff;fill-opacity:1;fill-rule:nonzero;stroke:none"
               d="M 0,0 6.06,1.803 4.881,5.767 -1.179,3.964 -1.659,5.579 12.475,9.781 12.954,8.167 6.349,6.203 7.527,2.238 14.133,4.203 14.613,2.588 0.479,-1.614 Z" />
          </g>
          <g
             transform="translate(149.2124,243.5811)"
             id="g4515">
            <path
               inkscape:connector-curvature="0"
               id="path4517"
               style="fill:#ffffff;fill-opacity:1;fill-rule:nonzero;stroke:none"
               d="m 0,0 -3.568,-1.357 c -1.001,-0.386 -2.178,-0.778 -3.23,-1.125 l 0.015,-0.088 c 1.129,0.007 2.416,-0.003 3.42,-0.039 l 3.814,-0.154 z m 1.828,-2.782 4.52,-0.261 0.26,-1.598 -15.092,0.953 -0.301,1.835 14.023,5.61 0.268,-1.64 -4.202,-1.683 z" />
          </g>
          <g
             transform="translate(139.3169,252.3984)"
             id="g4519">
            <path
               inkscape:connector-curvature="0"
               id="path4521"
               style="fill:#ffffff;fill-opacity:1;fill-rule:nonzero;stroke:none"
               d="M 0,0 13.264,0.437 13.131,4.458 -0.133,4.021 -0.187,5.682 13.099,6.12 13.088,7.104 17.57,7.165 17.614,5.831 14.559,5.643 14.783,-1.196 0.056,-1.683 Z" />
          </g>
          <g
             transform="translate(139.4907,266.251)"
             id="g4523">
            <path
               inkscape:connector-curvature="0"
               id="path4525"
               style="fill:#ffffff;fill-opacity:1;fill-rule:nonzero;stroke:none"
               d="M 0,0 14.707,-1.007 14.593,-2.688 -0.115,-1.68 Z" />
          </g>
          <g
             transform="translate(147.5581,272.4277)"
             id="g4527">
            <path
               inkscape:connector-curvature="0"
               id="path4529"
               style="fill:#ffffff;fill-opacity:1;fill-rule:nonzero;stroke:none"
               d="M 0,0 C 2.997,-0.508 6.072,-0.429 6.382,1.403 6.699,3.279 3.614,4.312 0.768,4.794 -1.949,5.254 -5.245,5.301 -5.567,3.404 -5.874,1.593 -2.954,0.5 0,0 M 0.995,6.53 C 6.45,5.606 8.225,3.375 7.83,1.048 7.421,-1.368 4.581,-2.55 -0.312,-1.721 c -4.809,0.814 -7.126,2.98 -6.696,5.524 0.42,2.48 3.367,3.511 8.003,2.727" />
          </g>
          <g
             transform="translate(143.269,287.5352)"
             id="g4531">
            <path
               inkscape:connector-curvature="0"
               id="path4533"
               style="fill:#ffffff;fill-opacity:1;fill-rule:nonzero;stroke:none"
               d="m 0,0 6.046,-1.838 1.201,3.954 -6.046,1.838 0.49,1.61 14.1,-4.285 -0.489,-1.61 -6.59,2.002 -1.202,-3.953 6.59,-2.003 -0.49,-1.611 -14.1,4.285 z" />
          </g>
          <g
             transform="translate(157.437,299.9727)"
             id="g4535">
            <path
               inkscape:connector-curvature="0"
               id="path4537"
               style="fill:#ffffff;fill-opacity:1;fill-rule:nonzero;stroke:none"
               d="M 0,0 -3.724,0.833 C -4.771,1.062 -5.969,1.385 -7.037,1.674 L -7.074,1.593 c 0.946,-0.616 2.013,-1.335 2.831,-1.917 l 3.097,-2.229 z M -0.008,-3.328 3.618,-6.033 2.956,-7.51 -9.109,1.596 -8.349,3.292 6.439,0.25 5.759,-1.267 1.326,-0.355 Z" />
          </g>
          <g
             transform="translate(156.7983,317.3154)"
             id="g4539">
            <path
               inkscape:connector-curvature="0"
               id="path4541"
               style="fill:#ffffff;fill-opacity:1;fill-rule:nonzero;stroke:none"
               d="M 0,0 12.581,-7.668 11.705,-9.106 0.374,-2.199 -1.241,-4.85 3.052,-7.467 c 3.266,-1.991 5.719,-3.639 5.844,-5.661 0.048,-0.466 -0.042,-0.948 -0.314,-1.397 l -1.384,0.46 c 0.091,0.277 0.147,0.576 0.092,0.865 -0.205,1.175 -1.741,2.393 -4.841,4.282 L -3.3,-5.414 Z" />
          </g>
          <g
             transform="translate(172.0776,315.6992)"
             id="g4543">
            <path
               inkscape:connector-curvature="0"
               id="path4545"
               style="fill:#ffffff;fill-opacity:1;fill-rule:nonzero;stroke:none"
               d="M 0,0 C 0.229,0.183 0.377,0.372 0.554,0.595 1.721,2.071 1.334,3.771 -0.106,4.91 -1.515,6.021 -3.215,5.917 -4.342,4.492 -4.532,4.252 -4.69,4.015 -4.806,3.799 Z m -10.504,8.304 4.6,-3.636 c 0.155,0.267 0.369,0.572 0.64,0.915 1.669,2.111 4.049,2.406 6.16,0.737 C 1.943,5.491 2.502,4.576 2.699,3.556 2.942,2.276 2.544,0.891 1.444,-0.5 0.78,-1.341 0.321,-1.815 -0.031,-2.122 l -11.518,9.104 z" />
          </g>
          <g
             transform="translate(170.0981,333.8267)"
             id="g4547">
            <path
               inkscape:connector-curvature="0"
               id="path4549"
               style="fill:#ffffff;fill-opacity:1;fill-rule:nonzero;stroke:none"
               d="M 0,0 4.429,-4.508 7.376,-1.612 2.947,2.896 4.148,4.076 14.477,-6.436 13.276,-7.617 8.448,-2.703 5.501,-5.6 10.329,-10.513 9.128,-11.692 -1.202,-1.18 Z" />
          </g>
          <g
             transform="translate(184.5952,337.0015)"
             id="g4551">
            <path
               inkscape:connector-curvature="0"
               id="path4553"
               style="fill:#ffffff;fill-opacity:1;fill-rule:nonzero;stroke:none"
               d="M 0,0 C 1.832,-2.426 4.122,-4.479 5.605,-3.359 7.125,-2.213 5.589,0.656 3.849,2.961 2.188,5.16 -0.176,7.458 -1.713,6.299 -3.179,5.192 -1.806,2.392 0,0 M 5.206,4.068 C 8.541,-0.35 8.3,-3.189 6.415,-4.613 4.46,-6.089 1.582,-4.999 -1.409,-1.037 c -2.94,3.894 -3.138,7.06 -1.078,8.616 2.008,1.515 4.86,0.242 7.693,-3.511" />
          </g>
          <g
             transform="translate(197.2495,346.2842)"
             id="g4555">
            <path
               inkscape:connector-curvature="0"
               id="path4557"
               style="fill:#ffffff;fill-opacity:1;fill-rule:nonzero;stroke:none"
               d="M 0,0 0.674,-1.126 -3.438,-3.581 -4.11,-2.455 Z" />
          </g>
          <g
             transform="translate(205.5229,357.8765)"
             id="g4559">
            <path
               inkscape:connector-curvature="0"
               id="path4561"
               style="fill:#ffffff;fill-opacity:1;fill-rule:nonzero;stroke:none"
               d="m 0,0 6.154,-13.399 -1.531,-0.704 -5.542,12.068 -3.657,-1.68 5.541,-12.068 -1.531,-0.702 -6.153,13.399 z" />
          </g>
          <g
             transform="translate(218.9194,353.1011)"
             id="g4563">
            <path
               inkscape:connector-curvature="0"
               id="path4565"
               style="fill:#ffffff;fill-opacity:1;fill-rule:nonzero;stroke:none"
               d="M 0,0 -1.853,3.336 C -2.376,4.272 -2.932,5.381 -3.427,6.371 L -3.511,6.346 c 0.168,-1.117 0.34,-2.392 0.448,-3.39 L -2.67,-0.841 Z M -2.492,-2.208 -2.104,-6.716 -3.648,-7.203 -4.861,7.87 -3.088,8.428 4.468,-4.648 2.882,-5.147 0.616,-1.228 Z" />
          </g>
          <g
             transform="translate(225.0962,362.373)"
             id="g4567">
            <path
               inkscape:connector-curvature="0"
               id="path4569"
               style="fill:#ffffff;fill-opacity:1;fill-rule:nonzero;stroke:none"
               d="M 0,0 -2.635,-0.542 -2.938,0.936 3.979,2.359 4.284,0.883 1.649,0.339 4.317,-12.62 2.668,-12.959 Z" />
          </g>
          <g
             transform="translate(236.7808,358.3989)"
             id="g4571">
            <path
               inkscape:connector-curvature="0"
               id="path4573"
               style="fill:#ffffff;fill-opacity:1;fill-rule:nonzero;stroke:none"
               d="M 0,0 C 0.2,-0.025 0.377,-0.031 0.66,-0.006 2.314,0.146 3.325,1.336 3.136,3.405 2.998,4.908 2.243,6.2 0.393,6.03 0.001,5.994 -0.322,5.921 -0.534,5.836 Z m -2.32,6.879 c 0.659,0.237 1.454,0.42 2.413,0.507 C 1.442,7.509 2.604,7.286 3.437,6.594 4.219,5.963 4.687,4.931 4.802,3.667 4.926,2.317 4.683,1.374 4.185,0.581 3.479,-0.582 2.179,-1.25 0.872,-1.368 0.589,-1.394 0.371,-1.415 0.13,-1.416 l 0.551,-6.009 -1.678,-0.154 z" />
          </g>
          <g
             transform="translate(248.3774,366.2168)"
             id="g4575">
            <path
               inkscape:connector-curvature="0"
               id="path4577"
               style="fill:#ffffff;fill-opacity:1;fill-rule:nonzero;stroke:none"
               d="m 0,0 -0.041,-14.737 -1.685,0.006 0.042,14.736 z" />
          </g>
          <g
             transform="translate(255.0391,358.5767)"
             id="g4579">
            <path
               inkscape:connector-curvature="0"
               id="path4581"
               style="fill:#ffffff;fill-opacity:1;fill-rule:nonzero;stroke:none"
               d="M 0,0 C -0.311,-3.023 -0.031,-6.086 1.818,-6.275 3.711,-6.47 4.539,-3.323 4.834,-0.452 5.115,2.289 4.947,5.582 3.033,5.778 1.205,5.965 0.307,2.98 0,0 M 6.582,-0.565 C 6.016,-6.069 3.906,-7.984 1.559,-7.743 -0.879,-7.494 -2.244,-4.737 -1.738,0.2 -1.24,5.051 0.77,7.505 3.336,7.243 5.838,6.985 7.061,4.112 6.582,-0.565" />
          </g>
          <g
             transform="translate(268.9316,362.479)"
             id="g4583">
            <path
               inkscape:connector-curvature="0"
               id="path4585"
               style="fill:#ffffff;fill-opacity:1;fill-rule:nonzero;stroke:none"
               d="m 0,0 -2.629,0.57 0.318,1.473 6.905,-1.492 -0.319,-1.475 -2.63,0.569 -2.797,-12.931 -1.647,0.355 z" />
          </g>
          <g
             transform="translate(280.2129,361.0947)"
             id="g4587">
            <path
               inkscape:connector-curvature="0"
               id="path4589"
               style="fill:#ffffff;fill-opacity:1;fill-rule:nonzero;stroke:none"
               d="m 0,0 -1.709,-4.987 c -0.83,-2.422 -1.504,-4.18 -2.379,-6.331 l 0.041,-0.015 c 0.994,1.348 2.369,2.935 3.467,4.247 l 4.74,5.659 1.49,-0.51 -4.783,-13.949 -1.428,0.49 1.653,4.822 c 1.023,2.98 1.66,4.704 2.424,6.523 L 3.473,-4.035 C 2.381,-5.604 1.215,-6.915 0.193,-8.138 l -4.914,-5.831 -1.511,0.518 4.785,13.948 z" />
          </g>
          <g
             transform="translate(293.1484,356.0112)"
             id="g4591">
            <path
               inkscape:connector-curvature="0"
               id="path4593"
               style="fill:#ffffff;fill-opacity:1;fill-rule:nonzero;stroke:none"
               d="m 0,0 -2.174,-4.439 c -0.615,-1.258 -0.701,-2.482 0.672,-3.154 0.531,-0.261 1.197,-0.391 1.734,-0.339 l 3.088,6.305 1.492,-0.73 -6.48,-13.239 -1.475,0.721 2.799,5.715 -0.078,0.039 c -0.773,0.014 -1.508,0.154 -2.195,0.491 -1.729,0.846 -2.279,2.406 -1.194,4.626 l 2.319,4.733 z" />
          </g>
          <g
             transform="translate(305.0937,349.481)"
             id="g4595">
            <path
               inkscape:connector-curvature="0"
               id="path4597"
               style="fill:#ffffff;fill-opacity:1;fill-rule:nonzero;stroke:none"
               d="m 0,0 -3.479,-5.279 3.452,-2.274 3.478,5.279 1.406,-0.927 -8.109,-12.312 -1.408,0.927 3.791,5.754 -3.451,2.274 -3.791,-5.753 -1.407,0.926 8.112,12.311 z" />
          </g>
          <g
             transform="translate(314.2031,332.9766)"
             id="g4599">
            <path
               inkscape:connector-curvature="0"
               id="path4601"
               style="fill:#ffffff;fill-opacity:1;fill-rule:nonzero;stroke:none"
               d="m 0,0 -2.826,2.381 -3.567,-4.231 3.211,-2.707 -0.943,-1.12 -4.5,3.793 L 0.877,9.389 5.176,5.765 4.23,4.645 1.221,7.182 -1.91,3.469 0.918,1.087 Z" />
          </g>
          <g
             transform="translate(324.5098,324.5547)"
             id="g4603">
            <path
               inkscape:connector-curvature="0"
               id="path4605"
               style="fill:#ffffff;fill-opacity:1;fill-rule:nonzero;stroke:none"
               d="M 0,0 0.49,-0.588 C 1.373,-1.646 2.936,-1.881 4.127,-0.887 5.168,-0.019 5.568,1.141 4.42,2.518 4.168,2.821 3.939,3.028 3.762,3.137 Z m -5.492,-4.579 c 0.092,-0.179 0.24,-0.425 0.478,-0.711 1.119,-1.343 2.639,-1.559 4.1,-0.341 1.56,1.303 1.391,3.01 0.398,4.233 L -0.99,-0.826 Z M 3.557,5.159 C 4.141,4.732 4.756,4.165 5.359,3.442 6.213,2.418 6.723,1.362 6.656,0.281 6.607,-0.584 6.146,-1.396 5.34,-2.068 4.182,-3.034 2.725,-3.167 1.363,-2.421 L 1.33,-2.449 c 0.74,-1.605 0.34,-3.277 -1.139,-4.509 -0.941,-0.784 -1.949,-1.112 -2.923,-1.07 -1.254,0.036 -2.438,0.842 -3.516,2.135 -0.701,0.84 -1.07,1.386 -1.297,1.795 z" />
          </g>
          <g
             transform="translate(337.1016,318.3203)"
             id="g4607">
            <path
               inkscape:connector-curvature="0"
               id="path4609"
               style="fill:#ffffff;fill-opacity:1;fill-rule:nonzero;stroke:none"
               d="m 0,0 -4.441,-2.838 c -2.157,-1.377 -3.776,-2.335 -5.799,-3.473 l 0.023,-0.037 c 1.617,0.436 3.68,0.822 5.354,1.165 l 7.228,1.479 0.848,-1.326 -12.418,-7.937 -0.811,1.273 4.293,2.743 c 2.653,1.696 4.223,2.648 5.952,3.597 l -0.024,0.037 c -1.83,-0.547 -3.559,-0.848 -5.117,-1.17 l -7.471,-1.505 -0.859,1.345 12.418,7.937 z" />
          </g>
          <g
             transform="translate(332.4004,296.5234)"
             id="g4611">
            <path
               inkscape:connector-curvature="0"
               id="path4613"
               style="fill:#ffffff;fill-opacity:1;fill-rule:nonzero;stroke:none"
               d="M 0,0 2.617,2.733 C 3.215,3.359 3.791,3.927 4.555,4.657 L 4.527,4.717 C 3.498,4.586 2.607,4.474 1.775,4.39 L -1.928,4.021 -2.674,5.579 5.42,6.09 10.66,11.851 11.416,10.273 8.908,7.616 C 8.42,7.067 7.893,6.548 7.176,5.817 l 0.019,-0.04 c 1.069,0.148 1.754,0.235 2.51,0.33 L 13.24,6.469 13.986,4.913 6.273,4.414 0.766,-1.598 Z" />
          </g>
          <g
             transform="translate(341.7617,293.1133)"
             id="g4615">
            <path
               inkscape:connector-curvature="0"
               id="path4617"
               style="fill:#ffffff;fill-opacity:1;fill-rule:nonzero;stroke:none"
               d="m 0,0 c -2.873,-0.99 -5.535,-2.53 -4.93,-4.288 0.619,-1.798 3.823,-1.228 6.553,-0.287 2.606,0.896 5.522,2.433 4.897,4.252 C 5.92,1.415 2.834,0.976 0,0 m 2.254,-6.208 c -5.231,-1.803 -7.856,-0.693 -8.625,1.54 -0.797,2.315 1.129,4.714 5.824,6.329 C 4.062,3.249 7.135,2.456 7.975,0.017 8.793,-2.361 6.699,-4.678 2.254,-6.208" />
          </g>
          <g
             transform="translate(346.6348,280.6196)"
             id="g4619">
            <path
               inkscape:connector-curvature="0"
               id="path4621"
               style="fill:#ffffff;fill-opacity:1;fill-rule:nonzero;stroke:none"
               d="M 0,0 0.158,-0.75 C 0.443,-2.098 1.717,-3.036 3.236,-2.714 4.562,-2.434 5.459,-1.596 5.088,0.16 5.006,0.544 4.9,0.835 4.795,1.015 Z M -6.998,-1.481 C -7,-1.682 -6.984,-1.97 -6.906,-2.334 c 0.361,-1.712 1.603,-2.612 3.465,-2.218 1.99,0.421 2.636,2.011 2.334,3.557 l -0.155,0.727 z M 5.559,2.897 C 5.875,2.249 6.154,1.458 6.35,0.538 6.625,-0.768 6.582,-1.939 6.018,-2.863 5.57,-3.606 4.783,-4.109 3.756,-4.327 2.279,-4.639 0.93,-4.074 0.074,-2.78 L 0.031,-2.79 c -0.095,-1.763 -1.232,-3.054 -3.115,-3.453 -1.197,-0.253 -2.242,-0.072 -3.086,0.421 -1.092,0.619 -1.762,1.885 -2.111,3.533 -0.227,1.07 -0.297,1.727 -0.307,2.193 z" />
          </g>
          <g
             transform="translate(346.1934,265.2163)"
             id="g4623">
            <path
               inkscape:connector-curvature="0"
               id="path4625"
               style="fill:#ffffff;fill-opacity:1;fill-rule:nonzero;stroke:none"
               d="M 0,0 3.66,1.083 C 4.687,1.391 5.891,1.692 6.965,1.96 L 6.959,2.047 C 5.832,2.126 4.549,2.235 3.551,2.348 L -0.24,2.789 Z M -1.611,2.913 -6.1,3.515 -6.238,5.127 8.74,3.035 8.898,1.182 -5.508,-3.35 l -0.142,1.657 4.318,1.359 z" />
          </g>
          <g
             transform="translate(355.3926,255.6836)"
             id="g4627">
            <path
               inkscape:connector-curvature="0"
               id="path4629"
               style="fill:#ffffff;fill-opacity:1;fill-rule:nonzero;stroke:none"
               d="m 0,0 -6.314,0.264 -0.174,-4.129 6.314,-0.264 -0.07,-1.683 -14.725,0.62 0.071,1.682 6.88,-0.29 0.174,4.129 -6.881,0.289 L -14.654,2.3 0.07,1.682 Z" />
          </g>
          <g
             transform="translate(354.1504,241.6455)"
             id="g4631">
            <path
               inkscape:connector-curvature="0"
               id="path4633"
               style="fill:#ffffff;fill-opacity:1;fill-rule:nonzero;stroke:none"
               d="m 0,0 -6.227,1.088 -0.71,-4.072 6.226,-1.088 -0.289,-1.659 -14.523,2.539 0.289,1.659 6.787,-1.187 0.713,4.072 -6.787,1.187 0.289,1.659 L 0.291,1.66 Z" />
          </g>
          <g
             transform="translate(348.9434,225.6123)"
             id="g4635">
            <path
               inkscape:connector-curvature="0"
               id="path4637"
               style="fill:#ffffff;fill-opacity:1;fill-rule:nonzero;stroke:none"
               d="M 0,0 C 0.105,0.196 0.225,0.436 0.34,0.812 0.844,2.464 -0.098,3.574 -1.625,4.041 -3.34,4.564 -4.752,3.762 -5.225,2.214 -5.289,2.005 -5.334,1.858 -5.377,1.643 Z m -11.133,9.302 c 0.377,-0.345 0.834,-0.644 1.319,-0.93 1.355,-0.802 3.322,-1.473 4.166,-2.759 0.25,-0.374 0.38,-0.847 0.363,-1.277 L -5.244,4.323 C -4.41,5.556 -2.988,6.241 -1.084,5.66 0.318,5.231 1.219,4.362 1.611,3.327 1.937,2.45 1.936,1.398 1.592,0.269 1.355,-0.505 1.037,-1.322 0.637,-1.955 l -13.91,4.248 0.492,1.612 6.15,-1.88 0.178,0.585 c 0.199,0.65 0.219,1.239 -0.154,1.811 -0.678,1.006 -2.731,1.771 -3.916,2.453 -0.393,0.212 -0.78,0.444 -1.12,0.754 z" />
          </g>
          <g
             transform="translate(170.061,191.9766)"
             id="g4639">
            <path
               inkscape:connector-curvature="0"
               id="path4641"
               style="fill:#ffffff;fill-opacity:1;fill-rule:nonzero;stroke:none"
               d="M 0,0 C 1.459,1.292 3.091,2.719 4.437,3.698 L 4.382,3.767 C 2.892,3.007 1.274,2.232 -0.366,1.522 l -6.549,-2.858 -0.664,0.842 4.131,5.461 c 1.177,1.544 2.331,3.012 3.494,4.291 L 0.004,9.31 C -1.351,8.239 -3.019,7.035 -4.721,5.802 L -9.789,2.163 -10.724,3.348 1.387,11.795 2.512,10.369 -1.704,4.84 C -2.92,3.239 -3.822,2.053 -4.955,0.77 l 0.041,-0.052 c 1.498,0.82 2.799,1.431 4.659,2.286 L 6.062,5.872 7.228,4.397 -3.813,-5.405 -4.788,-4.171 Z" />
          </g>
          <g
             transform="translate(183.3657,190.1836)"
             id="g4643">
            <path
               inkscape:connector-curvature="0"
               id="path4645"
               style="fill:#ffffff;fill-opacity:1;fill-rule:nonzero;stroke:none"
               d="m 0,0 -10.26,-10.582 -1.209,1.171 10.26,10.583 z" />
          </g>
          <g
             transform="translate(189.5981,184.7324)"
             id="g4647">
            <path
               inkscape:connector-curvature="0"
               id="path4649"
               style="fill:#ffffff;fill-opacity:1;fill-rule:nonzero;stroke:none"
               d="m 0,0 -3.823,-5.033 3.291,-2.5 3.823,5.032 1.342,-1.018 -8.918,-11.737 -1.341,1.019 4.168,5.484 -3.292,2.501 -4.168,-5.485 -1.341,1.018 8.918,11.739 z" />
          </g>
          <g
             transform="translate(203.4634,166.127)"
             id="g4651">
            <path
               inkscape:connector-curvature="0"
               id="path4653"
               style="fill:#ffffff;fill-opacity:1;fill-rule:nonzero;stroke:none"
               d="M 0,0 C 0.812,1.771 1.726,3.737 2.558,5.177 L 2.481,5.218 C 1.425,3.921 0.262,2.557 -0.95,1.242 l -4.83,-5.264 -0.948,0.5 1.564,6.667 c 0.451,1.886 0.912,3.696 1.456,5.337 L -3.767,8.513 C -4.572,6.985 -5.608,5.207 -6.665,3.392 l -3.159,-5.38 -1.335,0.704 7.649,12.628 1.607,-0.847 -1.615,-6.763 C -3.981,1.779 -4.326,0.328 -4.841,-1.304 l 0.059,-0.031 c 1.037,1.356 1.98,2.441 3.334,3.978 L 3.164,7.825 4.828,6.946 -1.295,-6.487 -2.688,-5.753 Z" />
          </g>
          <g
             transform="translate(213.2847,163.1484)"
             id="g4655">
            <path
               inkscape:connector-curvature="0"
               id="path4657"
               style="fill:#ffffff;fill-opacity:1;fill-rule:nonzero;stroke:none"
               d="M 0,0 C -0.967,-2.881 -1.369,-5.93 0.394,-6.521 2.196,-7.127 3.697,-4.24 4.617,-1.505 5.494,1.107 6.055,4.356 4.23,4.969 2.49,5.553 0.955,2.84 0,0 M 6.296,-2 C 4.533,-7.244 2.055,-8.648 -0.184,-7.896 -2.506,-7.116 -3.231,-4.127 -1.65,0.579 -0.097,5.2 2.404,7.151 4.85,6.329 7.233,5.529 7.793,2.456 6.296,-2" />
          </g>
          <g
             transform="translate(234.1284,165.4121)"
             id="g4659">
            <path
               inkscape:connector-curvature="0"
               id="path4661"
               style="fill:#ffffff;fill-opacity:1;fill-rule:nonzero;stroke:none"
               d="m 0,0 -2.679,-14.493 -1.656,0.307 2.413,13.051 -3.053,0.565 -0.914,-4.946 c -0.696,-3.762 -1.361,-6.642 -3.207,-7.478 -0.416,-0.212 -0.899,-0.301 -1.416,-0.206 l -0.064,1.457 c 0.292,0.014 0.592,0.07 0.842,0.223 1.025,0.611 1.615,2.481 2.274,6.049 l 1.226,6.623 z" />
          </g>
          <g
             transform="translate(241.3657,157.2725)"
             id="g4663">
            <path
               inkscape:connector-curvature="0"
               id="path4665"
               style="fill:#ffffff;fill-opacity:1;fill-rule:nonzero;stroke:none"
               d="m 0,0 c -0.123,-3.039 0.346,-6.078 2.202,-6.153 1.902,-0.077 2.534,3.115 2.652,6 C 4.965,2.6 4.595,5.876 2.671,5.954 0.836,6.027 0.122,2.993 0,0 M 6.604,-0.159 C 6.38,-5.687 4.393,-7.729 2.033,-7.634 c -2.447,0.098 -3.981,2.765 -3.78,7.726 0.197,4.873 2.053,7.446 4.632,7.343 2.512,-0.103 3.91,-2.896 3.719,-7.594" />
          </g>
          <g
             transform="translate(257.0332,161.2031)"
             id="g4667">
            <path
               inkscape:connector-curvature="0"
               id="path4669"
               style="fill:#ffffff;fill-opacity:1;fill-rule:nonzero;stroke:none"
               d="M 0,0 C 0.207,-2.046 0.322,-4.035 0.201,-5.871 0.094,-7.201 -0.148,-8.479 -0.465,-9.699 L 3.691,-9.275 2.496,2.475 -0.225,2.197 Z m 4.002,4.1 1.346,-13.23 0.98,0.079 0.367,-4.471 -1.304,-0.133 -0.42,3.036 -6.485,-0.659 0.223,-3.055 -1.326,-0.136 -0.541,4.451 0.976,0.122 c 0.409,1.383 0.668,2.728 0.774,4.08 0.154,1.928 0.066,3.877 -0.151,6.009 L -1.895,3.5 Z" />
          </g>
          <g
             transform="translate(272.4512,153.9023)"
             id="g4671">
            <path
               inkscape:connector-curvature="0"
               id="path4673"
               style="fill:#ffffff;fill-opacity:1;fill-rule:nonzero;stroke:none"
               d="M 0,0 C 0.293,0.005 0.525,0.063 0.801,0.132 2.625,0.591 3.355,2.171 2.908,3.952 2.471,5.691 1.061,6.644 -0.699,6.201 -0.996,6.127 -1.268,6.037 -1.488,5.936 Z M -3.256,12.975 -1.83,7.293 c 0.285,0.116 0.641,0.228 1.064,0.334 C 1.844,8.283 3.906,7.065 4.562,4.458 4.887,3.164 4.771,2.099 4.305,1.169 3.717,0.008 2.559,-0.847 0.84,-1.277 -0.199,-1.539 -0.85,-1.635 -1.318,-1.662 l -3.571,14.227 z" />
          </g>
          <g
             transform="translate(291.375,159.0303)"
             id="g4675">
            <path
               inkscape:connector-curvature="0"
               id="path4677"
               style="fill:#ffffff;fill-opacity:1;fill-rule:nonzero;stroke:none"
               d="m 0,0 c -0.338,-0.396 -0.951,-0.805 -1.803,-1.146 -2.679,-1.072 -5.449,0.317 -7.308,4.966 -2.16,5.4 -0.17,8.198 1.982,9.06 0.832,0.331 1.486,0.404 1.842,0.336 l 0.183,-1.458 c -0.38,0.012 -0.783,0.015 -1.494,-0.268 -1.461,-0.585 -2.599,-2.687 -0.925,-6.869 1.671,-4.184 3.767,-4.947 5.431,-4.28 0.588,0.235 1.061,0.588 1.321,0.881 z" />
          </g>
          <g
             transform="translate(297.4082,178.5479)"
             id="g4679">
            <path
               inkscape:connector-curvature="0"
               id="path4681"
               style="fill:#ffffff;fill-opacity:1;fill-rule:nonzero;stroke:none"
               d="M 0,0 7.309,-12.804 5.846,-13.639 -0.736,-2.107 -4.232,-4.103 2.352,-15.635 0.887,-16.471 -6.422,-3.665 Z" />
          </g>
          <g
             transform="translate(308.1719,177.0254)"
             id="g4683">
            <path
               inkscape:connector-curvature="0"
               id="path4685"
               style="fill:#ffffff;fill-opacity:1;fill-rule:nonzero;stroke:none"
               d="M 0,0 C 1.875,-2.393 4.203,-4.402 5.666,-3.256 7.162,-2.082 5.574,0.758 3.793,3.03 2.092,5.199 -0.312,7.451 -1.828,6.264 -3.273,5.131 -1.848,2.357 0,0 M 5.129,4.162 C 8.543,-0.192 8.355,-3.035 6.496,-4.493 4.57,-6.004 1.674,-4.968 -1.391,-1.062 -4.398,2.775 -4.654,5.937 -2.625,7.529 -0.645,9.08 2.229,7.861 5.129,4.162" />
          </g>
          <g
             transform="translate(319.5,186.9756)"
             id="g4687">
            <path
               inkscape:connector-curvature="0"
               id="path4689"
               style="fill:#ffffff;fill-opacity:1;fill-rule:nonzero;stroke:none"
               d="M 0,0 C 0.17,0.11 0.307,0.222 0.504,0.427 1.66,1.619 1.652,3.181 0.16,4.627 -0.924,5.678 -2.338,6.166 -3.631,4.831 -3.906,4.549 -4.102,4.282 -4.207,4.08 Z m -6.244,3.708 c 0.348,0.609 0.832,1.266 1.502,1.956 0.943,0.975 1.971,1.564 3.053,1.579 C -0.684,7.274 0.344,6.795 1.254,5.912 2.227,4.969 2.658,4.093 2.797,3.168 3.02,1.825 2.469,0.472 1.555,-0.47 1.357,-0.674 1.205,-0.831 1.021,-0.989 L 5.355,-5.19 4.182,-6.399 Z" />
          </g>
          <g
             transform="translate(323.6758,200.54)"
             id="g4691">
            <path
               inkscape:connector-curvature="0"
               id="path4693"
               style="fill:#ffffff;fill-opacity:1;fill-rule:nonzero;stroke:none"
               d="M 0,0 -1.607,-2.155 -2.816,-1.252 1.408,4.406 2.617,3.504 1.008,1.349 11.607,-6.564 10.6,-7.913 Z" />
          </g>
          <g
             transform="translate(339.1914,210.8604)"
             id="g4695">
            <path
               inkscape:connector-curvature="0"
               id="path4697"
               style="fill:#ffffff;fill-opacity:1;fill-rule:nonzero;stroke:none"
               d="m 0,0 c 0,-1.731 -1.402,-3.135 -3.135,-3.135 -1.73,0 -3.135,1.404 -3.135,3.135 0,1.73 1.405,3.135 3.135,3.135 C -1.402,3.135 0,1.73 0,0" />
          </g>
          <g
             transform="translate(160.5308,211.8105)"
             id="g4699">
            <path
               inkscape:connector-curvature="0"
               id="path4701"
               style="fill:#ffffff;fill-opacity:1;fill-rule:nonzero;stroke:none"
               d="m 0,0 c 0,-1.73 -1.403,-3.135 -3.136,-3.135 -1.73,0 -3.135,1.405 -3.135,3.135 0,1.731 1.405,3.135 3.135,3.135 C -1.403,3.135 0,1.731 0,0" />
          </g>
          <g
             transform="translate(260.3789,213.1777)"
             id="g4703">
            <path
               inkscape:connector-curvature="0"
               id="path4705"
               style="fill:#312089;fill-opacity:1;fill-rule:nonzero;stroke:none"
               d="m 0,0 h 39.773 l 0.889,102.611 c 0,0 -13.85,-2.719 -20.723,-20.695 -6.324,-16.536 0,-56.977 0,-56.977 H -0.284 c 0,0 3.63,59.264 1.45,73.929 -2.18,14.663 -14.198,23.713 -14.198,23.713 0,0 -12.118,-9.05 -14.298,-23.713 -2.18,-14.665 1.451,-73.929 1.451,-73.929 h -20.224 c 0,0 6.324,40.441 0,56.977 -6.875,17.976 -20.724,20.695 -20.724,20.695 L -65.938,0 h 39.774 z" />
          </g>
          <g
             transform="translate(251.0576,305.3384)"
             id="g4707">
            <path
               inkscape:connector-curvature="0"
               id="path4709"
               style="fill:#ffb81a;fill-opacity:1;fill-rule:nonzero;stroke:none"
               d="m 0,0 c 0,0 -10.961,-5.191 -8.548,-20.098 1.555,-9.603 7.229,-18.265 10.92,-24.646 4.247,-7.341 6.07,-15.278 6.07,-15.278 0,0 6.704,7.937 6.347,18.76 -0.281,8.54 -5.808,13.672 -9.833,21.979 C 0.622,-10.338 0,0 0,0" />
          </g>
          <g
             transform="translate(250.3267,303.9302)"
             id="g4711">
            <path
               inkscape:connector-curvature="0"
               id="path4713"
               style="fill:#ffffff;fill-opacity:1;fill-rule:nonzero;stroke:none"
               d="m 0,0 c -2.619,-1.73 -8.828,-7.125 -6.978,-18.554 1.343,-8.295 5.818,-15.873 9.413,-21.963 0.489,-0.829 0.961,-1.627 1.403,-2.393 3.111,-5.376 4.923,-10.991 5.705,-13.761 1.813,2.685 5.384,9.003 5.127,16.789 -0.183,5.579 -2.693,9.639 -5.598,14.34 -1.397,2.26 -2.842,4.597 -4.15,7.297 C 1.443,-11.064 0.323,-3.126 0,0 m 8.726,-60.46 -0.381,1.656 c -0.018,0.078 -1.848,7.904 -5.977,15.043 -0.442,0.761 -0.91,1.555 -1.397,2.38 -3.668,6.213 -8.233,13.944 -9.627,22.555 -1.295,8.001 1.208,13.277 3.535,16.294 2.534,3.285 5.369,4.652 5.488,4.708 L 1.503,2.714 1.58,1.459 c 0.005,-0.102 0.666,-10.282 4.872,-18.963 1.27,-2.621 2.691,-4.921 4.066,-7.144 2.907,-4.704 5.653,-9.146 5.852,-15.178 0.363,-11.023 -6.265,-19.002 -6.547,-19.337 z" />
          </g>
          <g
             transform="translate(272.8437,262.8135)"
             id="g4715">
            <path
               inkscape:connector-curvature="0"
               id="path4717"
               style="fill:#ffb81a;fill-opacity:1;fill-rule:nonzero;stroke:none"
               d="m 0,0 c 0,0 -1.983,-8.916 -4.521,-13.324 -2.538,-4.41 -8.678,-8.711 -9.942,-17.446 -0.784,-5.418 2.549,-13.043 2.549,-13.043 l 2.872,-0.14 c 0,0 1.258,6.404 5.396,12.134 3.984,5.517 7.88,11.319 7.88,17.727 C 4.234,-7 0,0 0,0" />
          </g>
          <g
             transform="translate(261.5098,219.8232)"
             id="g4719">
            <path
               inkscape:connector-curvature="0"
               id="path4721"
               style="fill:#ffffff;fill-opacity:1;fill-rule:nonzero;stroke:none"
               d="m 0,0 1.621,-0.079 c 0.458,1.864 1.946,6.997 5.377,11.748 4.068,5.634 7.721,11.19 7.721,17.229 0,4.593 -1.87,9.2 -3.088,11.713 C 10.869,37.647 9.361,32.389 7.549,29.242 6.748,27.849 5.616,26.482 4.419,25.037 1.673,21.721 -1.439,17.961 -2.288,12.099 -2.918,7.743 -0.692,1.729 0,0 m 2.983,-1.847 -4.13,0.201 -0.212,0.482 c -0.14,0.32 -3.42,7.912 -2.611,13.507 0.916,6.335 4.334,10.462 7.079,13.778 1.151,1.389 2.237,2.7 2.967,3.969 2.444,4.244 4.408,12.997 4.428,13.085 l 0.461,2.068 1.097,-1.813 c 0.177,-0.294 4.356,-7.286 4.356,-14.532 0,-6.546 -3.804,-12.356 -8.041,-18.225 C 4.404,5.172 3.139,-1.064 3.126,-1.127 Z" />
          </g>
          <g
             transform="translate(231.4717,287.6865)"
             id="g4723">
            <path
               inkscape:connector-curvature="0"
               id="path4725"
               style="fill:#ffb81a;fill-opacity:1;fill-rule:nonzero;stroke:none"
               d="m 0,0 c 0,0 -6.893,-9.73 -6.893,-20.322 0,-16.218 10.419,-26.651 14.945,-32.828 7.722,-10.541 4.655,-15.717 4.655,-15.717 l 4.604,0.495 c 0,0 6.706,9.91 4.643,19.913 C 20.042,-39.187 10.575,-27.48 6.399,-18.455 1.432,-7.721 0,0 0,0" />
          </g>
          <g
             transform="translate(231.0923,285.5024)"
             id="g4727">
            <path
               inkscape:connector-curvature="0"
               id="path4729"
               style="fill:#ffffff;fill-opacity:1;fill-rule:nonzero;stroke:none"
               d="m 0,0 c -1.902,-3.197 -5.663,-10.487 -5.663,-18.138 0,-13.585 7.514,-23.077 12.485,-29.36 0.84,-1.06 1.633,-2.063 2.295,-2.966 5.753,-7.853 5.718,-12.931 5.204,-15.232 l 2.872,0.31 c 1.095,1.763 6.068,10.4 4.308,18.939 -1.164,5.645 -5.241,12.281 -9.184,18.699 -2.427,3.953 -4.72,7.686 -6.31,11.12 C 2.493,-9.034 0.742,-2.988 0,0 m 11.49,-67.709 0.861,1.452 c 0.064,0.119 2.561,5.007 -4.605,14.789 -0.643,0.877 -1.427,1.867 -2.257,2.916 -5.118,6.466 -12.852,16.238 -12.852,30.414 0,10.739 6.761,20.407 7.049,20.813 l 1.161,1.64 0.368,-1.976 c 0.014,-0.076 1.477,-7.755 6.335,-18.253 1.548,-3.344 3.815,-7.036 6.216,-10.943 4.02,-6.544 8.176,-13.31 9.4,-19.246 2.111,-10.236 -4.49,-20.145 -4.772,-20.562 l -0.221,-0.326 z" />
          </g>
          <g
             transform="translate(220.6768,262.8135)"
             id="g4731">
            <path
               inkscape:connector-curvature="0"
               id="path4733"
               style="fill:#ffb81a;fill-opacity:1;fill-rule:nonzero;stroke:none"
               d="m 0,0 c 0,0 1.356,-9.861 6.833,-18 3.759,-5.586 5.998,-7.967 7.776,-13.819 1.214,-3.994 -1.356,-11.175 -1.356,-11.175 H 9.604 c 0,0 0.398,1.492 -1.44,4.367 -1.838,2.875 -9.643,8.555 -11.17,18.4 C -4.333,-11.667 0,0 0,0" />
          </g>
          <g
             transform="translate(231.1411,220.6689)"
             id="g4735">
            <path
               inkscape:connector-curvature="0"
               id="path4737"
               style="fill:#ffffff;fill-opacity:1;fill-rule:nonzero;stroke:none"
               d="m 0,0 h 2.177 c 0.554,1.729 2.085,7.019 1.155,10.078 -1.385,4.556 -3.055,6.947 -5.584,10.567 -0.64,0.916 -1.331,1.906 -2.084,3.025 -3.629,5.392 -5.474,11.445 -6.328,15.08 -1.167,-3.994 -2.836,-11.093 -1.966,-16.702 1.107,-7.14 5.654,-12.03 8.663,-15.266 C -2.914,5.649 -2.083,4.755 -1.584,3.976 -0.443,2.189 -0.087,0.852 0,0 m 3.388,-1.699 h -5.356 l 0.286,1.069 v -0.001 c -0.002,0 0.215,1.267 -1.335,3.691 -0.415,0.65 -1.24,1.537 -2.195,2.564 -3.151,3.389 -7.912,8.509 -9.098,16.164 -1.346,8.678 2.869,20.168 3.049,20.652 l 1.176,3.167 0.462,-3.346 c 0.014,-0.097 1.4,-9.77 6.697,-17.642 0.747,-1.109 1.433,-2.093 2.068,-3.001 C 1.669,18 3.495,15.387 4.958,10.572 6.239,6.357 3.698,-0.832 3.589,-1.136 Z" />
          </g>
          <g
             transform="translate(249.9771,181.0879)"
             id="g4739">
            <path
               inkscape:connector-curvature="0"
               id="path4741"
               style="fill:#312089;fill-opacity:1;fill-rule:nonzero;stroke:none"
               d="M 0,0 3.796,20.383 H -9.156 L -5.359,0 Z" />
          </g>
          <g
             transform="translate(244.3823,180.0879)"
             id="g4743">
            <path
               inkscape:connector-curvature="0"
               id="path4745"
               style="fill:#312089;fill-opacity:1;fill-rule:nonzero;stroke:none"
               d="M 0,0 H 6.108" />
          </g>
          <path
             inkscape:connector-curvature="0"
             id="path4747"
             style="fill:#ffffff;fill-opacity:1;fill-rule:nonzero;stroke:none"
             d="m 250.491,179.088 h -6.108 v 2 h 6.108 z" />
          <g
             transform="translate(239.7163,201.4707)"
             id="g4749">
            <path
               inkscape:connector-curvature="0"
               id="path4751"
               style="fill:#312089;fill-opacity:1;fill-rule:nonzero;stroke:none"
               d="m 0,0 c 0,0 -3.563,1.715 -5.771,5.617 -2.166,3.826 -1.896,8.776 -1.896,8.776 h 30.496 c 0,0 0.269,-4.95 -1.897,-8.776 C 18.725,1.715 15.163,0 15.163,0 Z" />
          </g>
          <g
             transform="translate(239.9243,202.3203)"
             id="g4753">
            <path
               inkscape:connector-curvature="0"
               id="path4755"
               style="fill:#ffffff;fill-opacity:1;fill-rule:nonzero;stroke:none"
               d="m 0,0 h 14.746 c 0.691,0.379 3.456,2.034 5.238,5.186 1.515,2.675 1.764,6.002 1.793,7.507 H -7.032 C -7.002,11.188 -6.754,7.861 -5.24,5.187 -3.446,2.017 -0.691,0.375 0,0 m -0.402,-1.699 -0.175,0.084 c -0.155,0.074 -3.83,1.877 -6.142,5.964 -2.263,3.997 -2.016,9.028 -2.005,9.241 l 0.044,0.803 h 32.105 l 0.044,-0.804 c 0.012,-0.212 0.257,-5.243 -2.006,-9.24 -2.31,-4.087 -5.984,-5.89 -6.139,-5.964" />
          </g>
          <path
             inkscape:connector-curvature="0"
             id="path4757"
             style="fill:#312089;fill-opacity:1;fill-rule:nonzero;stroke:none"
             d="m 266.258,218.338 h -37.923 v -5.01 h 37.923 z" />
          <path
             inkscape:connector-curvature="0"
             id="path4759"
             style="fill:#ffffff;fill-opacity:1;fill-rule:nonzero;stroke:none"
             d="m 229.185,214.178 h 36.224 v 3.311 h -36.224 z m 37.922,-1.699 h -39.623 v 6.709 h 39.623 z" />
          <g
             transform="translate(247.436,176.9766)"
             id="g4761">
            <path
               inkscape:connector-curvature="0"
               id="path4763"
               style="fill:#312089;fill-opacity:1;fill-rule:nonzero;stroke:none"
               d="M 0,0 C -2.811,0 -2.951,3.486 -2.951,3.486 H 2.95 C 2.95,3.486 2.811,0 0,0" />
          </g>
        </g>
      </g>
    </g>
  </g>
</svg>
