<?xml version="1.0" encoding="UTF-8" standalone="no"?>
<!-- Created with Inkscape (http://www.inkscape.org/) -->

<svg
   xmlns:dc="http://purl.org/dc/elements/1.1/"
   xmlns:cc="http://creativecommons.org/ns#"
   xmlns:rdf="http://www.w3.org/1999/02/22-rdf-syntax-ns#"
   xmlns:svg="http://www.w3.org/2000/svg"
   xmlns="http://www.w3.org/2000/svg"
   xmlns:sodipodi="http://sodipodi.sourceforge.net/DTD/sodipodi-0.dtd"
   xmlns:inkscape="http://www.inkscape.org/namespaces/inkscape"
   version="1.1"
   id="svg2"
   xml:space="preserve"
   width="700"
   height="300"
   viewBox="0 0 699.99998 300"
   sodipodi:docname="UINP.svg"
   inkscape:version="0.92.1 r15371"><metadata
     id="metadata8"><rdf:RDF><cc:Work
         rdf:about=""><dc:format>image/svg+xml</dc:format><dc:type
           rdf:resource="http://purl.org/dc/dcmitype/StillImage" /><dc:title></dc:title></cc:Work></rdf:RDF></metadata><defs
     id="defs6"><clipPath
       clipPathUnits="userSpaceOnUse"
       id="clipPath18"><path
         d="M 0,56.693 H 127.559 V 0 H 0 Z"
         id="path16"
         inkscape:connector-curvature="0" /></clipPath></defs><sodipodi:namedview
     pagecolor="#ffffff"
     bordercolor="#666666"
     borderopacity="1"
     objecttolerance="10"
     gridtolerance="10"
     guidetolerance="10"
     inkscape:pageopacity="0"
     inkscape:pageshadow="2"
     inkscape:window-width="1366"
     inkscape:window-height="706"
     id="namedview4"
     showgrid="false"
     inkscape:zoom="0.86268698"
     inkscape:cx="351.32771"
     inkscape:cy="110.85258"
     inkscape:window-x="-8"
     inkscape:window-y="-8"
     inkscape:window-maximized="1"
     inkscape:current-layer="g10" /><g
     id="g10"
     inkscape:groupmode="layer"
     inkscape:label="Instytut-Naionalnoic-Pamyati-1"
     transform="matrix(1.3333333,0,0,-1.3333333,0,300)"><g
       id="g12"
       transform="matrix(4.2632423,0,0,4.2632423,-5.0659152,-12.38628)"><g
         id="g14"
         clip-path="url(#clipPath18)"><g
           id="g20"
           transform="translate(20.0732,3.4492)"><path
             d="m 0,0 c 0,0 -10.988,4.931 -14.665,6.532 -3.678,2.033 -3.548,5.667 -3.548,5.667 V 51.005 H 18.17 V 12.199 c 0,0 0.13,-3.634 -3.547,-5.667 C 10.945,4.931 0,0 0,0"
             style="fill:#ffffff;fill-opacity:1;fill-rule:evenodd;stroke:none"
             id="path22"
             inkscape:connector-curvature="0" /></g><g
           id="g24"
           transform="translate(20.0732,3.4492)"><path
             d="m 0,0 c 0,0 -10.988,4.931 -14.665,6.532 -3.678,2.033 -3.548,5.667 -3.548,5.667 V 51.005 H 18.17 V 12.199 c 0,0 0.13,-3.634 -3.547,-5.667 C 10.945,4.931 0,0 0,0 Z"
             style="fill:none;stroke:#0b0c0b;stroke-width:0.99199998;stroke-linecap:butt;stroke-linejoin:miter;stroke-miterlimit:22.9260006;stroke-dasharray:none;stroke-opacity:1"
             id="path26"
             inkscape:connector-curvature="0" /></g><g
           id="g28"
           transform="translate(20.0732,51.3164)"><path
             d="m 0,0 c -1.579,-1.75 -1.6,-3.942 -1.6,-4.346 0,-2.321 0.302,-6.446 0.302,-10.96 0,-7.066 -3.388,-11.767 -3.388,-11.767 0,0 -0.058,-0.115 -0.75,-0.115 -0.692,0 -2.192,0.562 -2.192,2.22 0,1.658 1.832,2.12 2.178,2.12 0.346,0 0.518,-0.058 0.518,-0.058 0,0 -0.346,3.029 -1.124,9.864 -1.514,7.312 -7.008,9.864 -7.008,9.864 v -31.624 h 7.325 c 0,0 0.533,-4.457 4.441,-7.297 0,0 1.24,-1.068 1.298,-1.414 0.059,0.346 1.299,1.414 1.299,1.414 3.907,2.84 4.441,7.297 4.441,7.297 h 7.325 v 31.624 c 0,0 -5.494,-2.552 -7.008,-9.864 -0.778,-6.835 -1.124,-9.864 -1.124,-9.864 0,0 0.172,0.058 0.518,0.058 0.346,0 2.178,-0.462 2.178,-2.12 0,-1.658 -1.5,-2.22 -2.192,-2.22 -0.692,0 -0.75,0.115 -0.75,0.115 0,0 -3.388,4.701 -3.388,11.767 0,4.514 0.302,8.639 0.302,10.96 C 1.601,-3.942 1.58,-1.75 0,0 Z"
             style="fill:#0b0c0b;fill-opacity:1;fill-rule:evenodd;stroke:none"
             id="path30"
             inkscape:connector-curvature="0" /></g><g
           id="g32"
           transform="translate(30.918,43.4805)"><path
             d="m 0,0 c 0,0 -1.989,-2.48 -2.567,-5.393 -0.317,-2.683 -0.952,-7.903 -0.952,-7.903 0,0 1.904,-0.808 2.336,-2.798 H 0 Z"
             style="fill:#ffffff;fill-opacity:1;fill-rule:evenodd;stroke:none"
             id="path34"
             inkscape:connector-curvature="0" /></g><g
           id="g36"
           transform="translate(25.6113,21.9072)"><path
             d="M 0,0 C 0.461,0 3.504,0.447 4.124,3.288 H 5.307 V -3.259 H 0.461 c 0,0 0,1.788 -0.461,3.259"
             style="fill:#ffffff;fill-opacity:1;fill-rule:evenodd;stroke:none"
             id="path38"
             inkscape:connector-curvature="0" /></g><g
           id="g40"
           transform="translate(23.8086,18.6768)"><path
             d="m 0,0 h -2.639 c 0,0 0.084,2.334 2.292,2.682 C -0.158,2.076 0,1.342 0,0"
             style="fill:#ffffff;fill-opacity:1;fill-rule:evenodd;stroke:none"
             id="path42"
             inkscape:connector-curvature="0" /></g><g
           id="g44"
           transform="translate(21.1982,16.5146)"><path
             d="M 0,0 H 2.25 C 2.25,0 2.005,-2.611 0,-4.471 Z"
             style="fill:#ffffff;fill-opacity:1;fill-rule:evenodd;stroke:none"
             id="path46"
             inkscape:connector-curvature="0" /></g><g
           id="g48"
           transform="translate(9.2295,43.4805)"><path
             d="m 0,0 c 0,0 1.99,-2.48 2.566,-5.393 0.318,-2.683 0.953,-7.903 0.953,-7.903 0,0 -1.904,-0.807 -2.336,-2.797 H 0 Z"
             style="fill:#ffffff;fill-opacity:1;fill-rule:evenodd;stroke:none"
             id="path50"
             inkscape:connector-curvature="0" /></g><g
           id="g52"
           transform="translate(14.5361,21.9072)"><path
             d="m 0,0 c -0.461,0 -3.504,0.447 -4.124,3.288 h -1.183 v -6.547 h 4.846 c 0,0 0,1.788 0.461,3.259"
             style="fill:#ffffff;fill-opacity:1;fill-rule:evenodd;stroke:none"
             id="path54"
             inkscape:connector-curvature="0" /></g><g
           id="g56"
           transform="translate(16.3389,18.6768)"><path
             d="M 0,0 H 2.639 C 2.639,0 2.554,2.334 0.347,2.682 0.158,2.076 0,1.342 0,0"
             style="fill:#ffffff;fill-opacity:1;fill-rule:evenodd;stroke:none"
             id="path58"
             inkscape:connector-curvature="0" /></g><g
           id="g60"
           transform="translate(18.9482,16.5146)"><path
             d="m 0,0 h -2.249 c 0,0 0.245,-2.611 2.249,-4.471 z"
             style="fill:#ffffff;fill-opacity:1;fill-rule:evenodd;stroke:none"
             id="path62"
             inkscape:connector-curvature="0" /></g><g
           id="g64"
           transform="translate(20.0732,29.4058)"><path
             d="M 0,0 C 0,0 -0.966,-3.577 -2.509,-5.913 -1.932,-6.288 0,-7.599 0,-7.599 c 0,0 1.933,1.311 2.51,1.686 C 0.967,-3.577 0,0 0,0"
             style="fill:#ffffff;fill-opacity:1;fill-rule:evenodd;stroke:none"
             id="path66"
             inkscape:connector-curvature="0" /></g><g
           id="g68"
           transform="translate(45.167,53.9565)"><path
             d="M 0,0 1.562,-3.346 C 1.76,-3.812 1.946,-4.267 2.133,-4.733 h 0.023 c 0.14,0.408 0.292,0.862 0.49,1.422 L 3.87,0 H 4.942 L 3.299,-4.034 C 2.867,-5.083 2.378,-6.284 1.83,-7.018 1.317,-7.659 0.746,-7.986 0.046,-7.986 c -0.256,0 -0.442,0.024 -0.571,0.07 l 0.105,0.828 c 0.082,-0.023 0.198,-0.035 0.373,-0.035 0.817,0.012 1.294,0.793 1.539,1.352 0.081,0.175 0.058,0.292 -0.035,0.478 L -1.154,0 Z"
             style="fill:#231f20;fill-opacity:1;fill-rule:nonzero;stroke:none"
             id="path70"
             inkscape:connector-curvature="0" /></g><g
           id="g72"
           transform="translate(51.9512,53.9565)"><path
             d="M 0,0 V -3.486 H 0.314 L 3.008,0 H 4.231 L 1.259,-3.603 C 2.553,-3.777 3.054,-4.57 3.462,-5.631 3.754,-6.435 3.976,-7.158 4.325,-7.857 H 3.229 c -0.28,0.536 -0.501,1.235 -0.711,1.853 -0.362,1.038 -0.863,1.749 -2.192,1.749 H 0 V -7.857 H -1.003 V 0 Z"
             style="fill:#231f20;fill-opacity:1;fill-rule:nonzero;stroke:none"
             id="path74"
             inkscape:connector-curvature="0" /></g><g
           id="g76"
           transform="translate(58.2803,50.0742)"><path
             d="m 0,0 c 0.222,-0.058 0.501,-0.082 0.839,-0.082 1.224,0 1.971,0.595 1.971,1.679 0,1.038 -0.735,1.539 -1.854,1.539 C 0.513,3.136 0.175,3.101 0,3.055 Z M -1.015,3.789 C -0.524,3.871 0.116,3.94 0.933,3.94 1.935,3.94 2.67,3.708 3.136,3.288 3.567,2.915 3.823,2.343 3.823,1.644 3.823,0.933 3.613,0.373 3.218,-0.035 2.681,-0.606 1.807,-0.897 0.815,-0.897 0.513,-0.897 0.233,-0.886 0,-0.828 v -3.147 h -1.015 z"
             style="fill:#231f20;fill-opacity:1;fill-rule:nonzero;stroke:none"
             id="path78"
             inkscape:connector-curvature="0" /></g><g
           id="g80"
           transform="translate(66.335,49.3633)"><path
             d="M 0,0 -0.77,2.262 C -0.944,2.774 -1.062,3.241 -1.178,3.695 H -1.201 C -1.317,3.229 -1.446,2.751 -1.598,2.273 L -2.367,0 Z m -2.577,-0.792 -0.816,-2.472 h -1.049 l 2.67,7.857 h 1.224 L 2.133,-3.264 H 1.049 l -0.84,2.472 z"
             style="fill:#231f20;fill-opacity:1;fill-rule:nonzero;stroke:none"
             id="path82"
             inkscape:connector-curvature="0" /></g><g
           id="g84"
           transform="translate(70.6475,55.0991)"><path
             d="M 0,0 C 0,0.314 0.244,0.583 0.583,0.583 0.909,0.583 1.143,0.326 1.143,0 1.143,-0.327 0.921,-0.595 0.571,-0.595 0.232,-0.595 0,-0.327 0,0 m -0.012,-9 h -1.015 v 7.857 h 1.015 z m -2.157,9 c 0,0.314 0.257,0.583 0.583,0.583 0.326,0 0.56,-0.257 0.56,-0.583 0,-0.327 -0.222,-0.595 -0.56,-0.595 -0.35,0 -0.583,0.268 -0.583,0.595"
             style="fill:#231f20;fill-opacity:1;fill-rule:nonzero;stroke:none"
             id="path86"
             inkscape:connector-curvature="0" /></g><g
           id="g88"
           transform="translate(73.4219,53.9565)"><path
             d="M 0,0 V -3.288 H 3.8 V 0 H 4.826 V -7.857 H 3.8 v 3.683 H 0 V -7.857 H -1.015 V 0 Z"
             style="fill:#231f20;fill-opacity:1;fill-rule:nonzero;stroke:none"
             id="path90"
             inkscape:connector-curvature="0" /></g><g
           id="g92"
           transform="translate(85.498,46.3555)"><path
             d="m 0,0 c -0.373,-0.187 -1.119,-0.373 -2.075,-0.373 -2.215,0 -3.882,1.399 -3.882,3.976 0,2.459 1.667,4.126 4.103,4.126 0.98,0 1.597,-0.209 1.866,-0.35 L -0.233,6.552 c -0.385,0.186 -0.933,0.326 -1.585,0.326 -1.843,0 -3.067,-1.177 -3.067,-3.241 0,-1.923 1.108,-3.159 3.02,-3.159 0.618,0 1.247,0.128 1.655,0.327 z"
             style="fill:#231f20;fill-opacity:1;fill-rule:nonzero;stroke:none"
             id="path94"
             inkscape:connector-curvature="0" /></g><g
           id="g96"
           transform="translate(87.7822,46.8804)"><path
             d="m 0,0 c 0.233,-0.047 0.489,-0.059 0.839,-0.059 1.131,0 2.099,0.548 2.099,1.749 0,1.236 -0.992,1.702 -2.111,1.702 C 0.571,3.392 0.256,3.369 0,3.334 Z M 0,7.076 V 4.138 c 0.233,0.035 0.699,0.059 0.968,0.059 1.608,0 3.03,-0.712 3.03,-2.448 C 3.998,1.014 3.766,0.478 3.393,0.07 2.751,-0.606 1.655,-0.851 0.571,-0.851 c -0.711,0 -1.248,0.046 -1.586,0.093 v 7.834 z"
             style="fill:#231f20;fill-opacity:1;fill-rule:nonzero;stroke:none"
             id="path98"
             inkscape:connector-curvature="0" /></g><g
           id="g100"
           transform="translate(94.0879,53.9565)"><path
             d="M 0,0 V -3.486 H 0.314 L 3.008,0 H 4.231 L 1.259,-3.603 C 2.553,-3.777 3.054,-4.57 3.462,-5.631 3.754,-6.435 3.976,-7.158 4.325,-7.857 H 3.229 c -0.28,0.536 -0.501,1.235 -0.711,1.853 -0.362,1.038 -0.863,1.749 -2.192,1.749 H 0 V -7.857 H -1.003 V 0 Z"
             style="fill:#231f20;fill-opacity:1;fill-rule:nonzero;stroke:none"
             id="path102"
             inkscape:connector-curvature="0" /></g><g
           id="g104"
           transform="translate(100.3584,53.9565)"><path
             d="m 0,0 v -3.311 c 0,-1.247 -0.023,-2.273 -0.093,-3.322 l 0.023,-0.012 c 0.396,0.816 0.886,1.667 1.458,2.6 L 3.929,0 H 4.943 V -7.857 H 3.987 v 3.345 c 0,1.271 0.012,2.203 0.093,3.195 L 4.045,-1.306 C 3.66,-2.168 3.124,-3.078 2.588,-3.952 L 0.128,-7.857 H -0.956 V 0 Z"
             style="fill:#231f20;fill-opacity:1;fill-rule:nonzero;stroke:none"
             id="path106"
             inkscape:connector-curvature="0" /></g><g
           id="g108"
           transform="translate(109.3105,55.6001)"><path
             d="m 0,0 c 0.047,-0.361 0.163,-0.723 0.711,-0.723 0.537,0 0.665,0.338 0.712,0.723 h 0.78 C 2.146,-0.77 1.679,-1.247 0.688,-1.247 -0.268,-1.247 -0.723,-0.77 -0.781,0 Z m -1.282,-1.644 v -3.311 c 0,-1.247 -0.024,-2.273 -0.093,-3.322 l 0.022,-0.012 c 0.397,0.816 0.887,1.667 1.458,2.6 l 2.541,4.045 H 3.661 V -9.501 H 2.705 v 3.346 c 0,1.27 0.012,2.203 0.093,3.194 L 2.763,-2.949 C 2.378,-3.812 1.842,-4.721 1.306,-5.596 l -2.46,-3.905 h -1.084 v 7.857 z"
             style="fill:#231f20;fill-opacity:1;fill-rule:nonzero;stroke:none"
             id="path110"
             inkscape:connector-curvature="0" /></g><path
           d="m 45.89,32.111 h -1.015 v 7.857 h 1.015 z"
           style="fill:#231f20;fill-opacity:1;fill-rule:nonzero;stroke:none"
           id="path112"
           inkscape:connector-curvature="0" /><g
           id="g114"
           transform="translate(48.6758,39.9688)"><path
             d="M 0,0 V -3.288 H 3.8 V 0 H 4.826 V -7.857 H 3.8 v 3.684 H 0 V -7.857 H -1.015 V 0 Z"
             style="fill:#231f20;fill-opacity:1;fill-rule:nonzero;stroke:none"
             id="path116"
             inkscape:connector-curvature="0" /></g><g
           id="g118"
           transform="translate(60.752,32.3677)"><path
             d="m 0,0 c -0.373,-0.187 -1.119,-0.373 -2.075,-0.373 -2.215,0 -3.882,1.399 -3.882,3.976 0,2.459 1.667,4.126 4.103,4.126 0.98,0 1.597,-0.209 1.866,-0.35 L -0.233,6.552 c -0.385,0.186 -0.933,0.326 -1.585,0.326 -1.843,0 -3.067,-1.177 -3.067,-3.241 0,-1.923 1.108,-3.159 3.02,-3.159 0.618,0 1.247,0.128 1.655,0.327 z"
             style="fill:#231f20;fill-opacity:1;fill-rule:nonzero;stroke:none"
             id="path120"
             inkscape:connector-curvature="0" /></g><g
           id="g122"
           transform="translate(63.9209,39.106)"><path
             d="M 0,0 H -2.39 V 0.863 H 3.428 V 0 H 1.026 V -6.995 H 0 Z"
             style="fill:#231f20;fill-opacity:1;fill-rule:nonzero;stroke:none"
             id="path124"
             inkscape:connector-curvature="0" /></g><g
           id="g126"
           transform="translate(69.1777,39.9688)"><path
             d="m 0,0 v -3.311 c 0,-1.247 -0.023,-2.273 -0.093,-3.322 l 0.024,-0.012 c 0.395,0.816 0.885,1.667 1.457,2.6 L 3.929,0 H 4.943 V -7.857 H 3.987 v 3.345 c 0,1.271 0.012,2.204 0.093,3.195 L 4.045,-1.306 C 3.661,-2.168 3.124,-3.078 2.588,-3.952 L 0.128,-7.857 H -0.956 V 0 Z"
             style="fill:#231f20;fill-opacity:1;fill-rule:nonzero;stroke:none"
             id="path128"
             inkscape:connector-curvature="0" /></g><g
           id="g130"
           transform="translate(77.3838,39.106)"><path
             d="M 0,0 H -2.39 V 0.863 H 3.428 V 0 H 1.026 V -6.995 H 0 Z"
             style="fill:#231f20;fill-opacity:1;fill-rule:nonzero;stroke:none"
             id="path132"
             inkscape:connector-curvature="0" /></g><g
           id="g134"
           transform="translate(82.4434,39.9688)"><path
             d="M 0,0 1.562,-3.346 C 1.76,-3.812 1.946,-4.267 2.133,-4.733 h 0.023 c 0.14,0.408 0.292,0.862 0.49,1.422 L 3.87,0 H 4.942 L 3.299,-4.034 C 2.867,-5.083 2.378,-6.284 1.83,-7.018 1.317,-7.659 0.746,-7.986 0.046,-7.986 c -0.256,0 -0.442,0.024 -0.57,0.07 l 0.104,0.828 c 0.081,-0.023 0.198,-0.035 0.373,-0.035 0.817,0.012 1.294,0.793 1.539,1.352 0.081,0.175 0.058,0.292 -0.035,0.479 L -1.154,0 Z"
             style="fill:#231f20;fill-opacity:1;fill-rule:nonzero;stroke:none"
             id="path136"
             inkscape:connector-curvature="0" /></g><g
           id="g138"
           transform="translate(90.2051,39.106)"><path
             d="M 0,0 H -2.39 V 0.863 H 3.428 V 0 H 1.026 V -6.995 H 0 Z"
             style="fill:#231f20;fill-opacity:1;fill-rule:nonzero;stroke:none"
             id="path140"
             inkscape:connector-curvature="0" /></g><g
           id="g142"
           transform="translate(45.8896,25.9814)"><path
             d="M 0,0 V -3.287 H 3.8 V 0 H 4.826 V -7.857 H 3.8 v 3.684 H 0 V -7.857 H -1.015 V 0 Z"
             style="fill:#231f20;fill-opacity:1;fill-rule:nonzero;stroke:none"
             id="path144"
             inkscape:connector-curvature="0" /></g><g
           id="g146"
           transform="translate(56.3223,21.3887)"><path
             d="M 0,0 -0.77,2.262 C -0.944,2.774 -1.062,3.24 -1.178,3.695 H -1.201 C -1.317,3.229 -1.446,2.751 -1.598,2.273 L -2.367,0 Z m -2.577,-0.793 -0.816,-2.472 h -1.049 l 2.67,7.858 h 1.224 L 2.133,-3.265 H 1.049 L 0.21,-0.793 Z"
             style="fill:#231f20;fill-opacity:1;fill-rule:nonzero;stroke:none"
             id="path148"
             inkscape:connector-curvature="0" /></g><g
           id="g150"
           transform="translate(60.623,25.9814)"><path
             d="M 0,0 V -7.006 H 3.603 V 0 H 4.628 V -7.029 L 5.315,-7.053 5.246,-9.746 H 4.441 l -0.07,1.889 H -1.015 V 0 Z"
             style="fill:#231f20;fill-opacity:1;fill-rule:nonzero;stroke:none"
             id="path152"
             inkscape:connector-curvature="0" /></g><path
           d="m 68.223,18.124 h -1.015 v 7.857 h 1.015 z"
           style="fill:#231f20;fill-opacity:1;fill-rule:nonzero;stroke:none"
           id="path154"
           inkscape:connector-curvature="0" /><g
           id="g156"
           transform="translate(70.6123,22.0059)"><path
             d="m 0,0 c 0,-1.679 0.909,-3.182 2.506,-3.182 1.609,0 2.518,1.481 2.518,3.264 0,1.563 -0.816,3.194 -2.506,3.194 C 0.839,3.276 0,1.726 0,0 m 6.097,0.129 c 0,-2.705 -1.644,-4.139 -3.649,-4.139 -2.075,0 -3.532,1.609 -3.532,3.988 0,2.494 1.55,4.126 3.648,4.126 2.146,0 3.533,-1.644 3.533,-3.975"
             style="fill:#231f20;fill-opacity:1;fill-rule:nonzero;stroke:none"
             id="path158"
             inkscape:connector-curvature="0" /></g><g
           id="g160"
           transform="translate(79.04,25.9814)"><path
             d="M 0,0 V -3.287 H 3.8 V 0 H 4.826 V -7.857 H 3.8 v 3.684 H 0 V -7.857 H -1.015 V 0 Z"
             style="fill:#231f20;fill-opacity:1;fill-rule:nonzero;stroke:none"
             id="path162"
             inkscape:connector-curvature="0" /></g><g
           id="g164"
           transform="translate(89.4727,21.3887)"><path
             d="M 0,0 -0.77,2.262 C -0.944,2.774 -1.062,3.24 -1.178,3.695 H -1.201 C -1.317,3.229 -1.446,2.751 -1.598,2.273 L -2.367,0 Z m -2.577,-0.793 -0.816,-2.472 h -1.049 l 2.67,7.858 h 1.224 L 2.133,-3.265 H 1.049 L 0.21,-0.793 Z"
             style="fill:#231f20;fill-opacity:1;fill-rule:nonzero;stroke:none"
             id="path166"
             inkscape:connector-curvature="0" /></g><g
           id="g168"
           transform="translate(98.3203,25.9814)"><path
             d="m 0,0 v -7.857 h -1.026 v 7.006 h -2.6 v -2.378 c 0,-1.702 -0.07,-3.602 -1.178,-4.348 -0.291,-0.187 -0.746,-0.373 -1.2,-0.373 l -0.129,0.815 c 0.316,0.059 0.642,0.245 0.828,0.42 0.63,0.618 0.688,2.146 0.688,3.404 V 0 Z"
             style="fill:#231f20;fill-opacity:1;fill-rule:nonzero;stroke:none"
             id="path170"
             inkscape:connector-curvature="0" /></g><g
           id="g172"
           transform="translate(101.0938,18.9053)"><path
             d="m 0,0 c 0.233,-0.047 0.489,-0.059 0.839,-0.059 1.131,0 2.099,0.548 2.099,1.749 0,1.236 -0.992,1.703 -2.111,1.703 C 0.571,3.393 0.256,3.369 0,3.334 Z M 0,7.076 V 4.139 c 0.233,0.035 0.699,0.058 0.968,0.058 1.608,0 3.03,-0.712 3.03,-2.448 0,-0.734 -0.232,-1.27 -0.605,-1.679 -0.642,-0.676 -1.738,-0.921 -2.822,-0.921 -0.711,0 -1.248,0.046 -1.586,0.093 v 7.834 z"
             style="fill:#231f20;fill-opacity:1;fill-rule:nonzero;stroke:none"
             id="path174"
             inkscape:connector-curvature="0" /></g><g
           id="g176"
           transform="translate(107.4111,25.9814)"><path
             d="M 0,0 V -3.287 H 3.8 V 0 H 4.826 V -7.857 H 3.8 v 3.684 H 0 V -7.857 H -1.015 V 0 Z"
             style="fill:#231f20;fill-opacity:1;fill-rule:nonzero;stroke:none"
             id="path178"
             inkscape:connector-curvature="0" /></g><g
           id="g180"
           transform="translate(114.6143,22.0059)"><path
             d="m 0,0 c 0,-1.679 0.909,-3.182 2.506,-3.182 1.609,0 2.518,1.481 2.518,3.264 0,1.563 -0.816,3.194 -2.506,3.194 C 0.839,3.276 0,1.726 0,0 m 6.097,0.129 c 0,-2.705 -1.644,-4.139 -3.649,-4.139 -2.075,0 -3.532,1.609 -3.532,3.988 0,2.494 1.55,4.126 3.648,4.126 2.146,0 3.533,-1.644 3.533,-3.975"
             style="fill:#231f20;fill-opacity:1;fill-rule:nonzero;stroke:none"
             id="path182"
             inkscape:connector-curvature="0" /></g><g
           id="g184"
           transform="translate(123.0537,27.124)"><path
             d="M 0,0 C 0,0.314 0.244,0.583 0.583,0.583 0.909,0.583 1.143,0.326 1.143,0 1.143,-0.326 0.921,-0.595 0.571,-0.595 0.232,-0.595 0,-0.326 0,0 m -0.012,-9 h -1.015 v 7.857 h 1.015 z m -2.157,9 c 0,0.314 0.257,0.583 0.583,0.583 0.326,0 0.56,-0.257 0.56,-0.583 0,-0.326 -0.222,-0.595 -0.56,-0.595 -0.35,0 -0.583,0.269 -0.583,0.595"
             style="fill:#231f20;fill-opacity:1;fill-rule:nonzero;stroke:none"
             id="path186"
             inkscape:connector-curvature="0" /></g><g
           id="g188"
           transform="translate(50.5527,11.9941)"><path
             d="m 0,0 v -7.857 h -1.015 v 7.005 H -4.663 V -7.857 H -5.678 V 0 Z"
             style="fill:#231f20;fill-opacity:1;fill-rule:nonzero;stroke:none"
             id="path190"
             inkscape:connector-curvature="0" /></g><g
           id="g192"
           transform="translate(56.1709,7.4004)"><path
             d="M 0,0 -0.77,2.262 C -0.944,2.774 -1.062,3.241 -1.178,3.695 H -1.201 C -1.317,3.229 -1.446,2.752 -1.598,2.273 L -2.367,0 Z m -2.577,-0.792 -0.816,-2.472 h -1.049 l 2.67,7.858 h 1.224 L 2.133,-3.264 H 1.049 l -0.84,2.472 z"
             style="fill:#231f20;fill-opacity:1;fill-rule:nonzero;stroke:none"
             id="path194"
             inkscape:connector-curvature="0" /></g><g
           id="g196"
           transform="translate(66.0791,7.5869)"><path
             d="M 0,0 C -0.059,1.096 -0.129,2.413 -0.117,3.393 H -0.151 C -0.42,2.472 -0.746,1.492 -1.143,0.408 L -2.53,-3.403 H -3.3 L -4.57,0.338 C -4.943,1.446 -5.258,2.46 -5.479,3.393 H -5.503 C -5.526,2.413 -5.584,1.096 -5.654,-0.081 l -0.21,-3.369 h -0.968 l 0.548,7.857 h 1.294 l 1.341,-3.801 c 0.327,-0.967 0.594,-1.83 0.793,-2.646 h 0.035 c 0.198,0.793 0.477,1.655 0.827,2.646 l 1.399,3.801 H 0.699 L 1.188,-3.45 h -0.99 z"
             style="fill:#231f20;fill-opacity:1;fill-rule:nonzero;stroke:none"
             id="path198"
             inkscape:connector-curvature="0" /></g><g
           id="g200"
           transform="translate(69.5508,12.1221)"><path
             d="M 0,0 -0.198,-2.798 H -0.827 L -1.014,0 Z"
             style="fill:#231f20;fill-opacity:1;fill-rule:nonzero;stroke:none"
             id="path202"
             inkscape:connector-curvature="0" /></g><g
           id="g204"
           transform="translate(74.5635,11.1777)"><path
             d="m 0,0 c -0.175,0.035 -0.501,0.094 -0.956,0.094 -1.002,0 -1.854,-0.385 -1.854,-1.47 0,-0.944 0.84,-1.492 1.948,-1.492 0.338,0 0.664,0 0.862,0.012 z m -4.255,-7.041 c 0.116,0.21 0.222,0.454 0.315,0.711 0.338,0.897 0.547,1.993 1.189,2.635 0.187,0.186 0.42,0.326 0.653,0.396 v 0.035 c -0.967,0.163 -1.737,0.863 -1.737,1.935 0,0.687 0.279,1.236 0.723,1.598 0.489,0.395 1.258,0.605 2.25,0.605 0.664,0 1.364,-0.058 1.877,-0.163 V -7.041 H 0 v 3.404 h -0.746 c -0.489,0 -0.851,-0.105 -1.131,-0.384 -0.536,-0.548 -0.758,-1.703 -1.037,-2.449 -0.082,-0.198 -0.14,-0.361 -0.257,-0.571 z"
             style="fill:#231f20;fill-opacity:1;fill-rule:nonzero;stroke:none"
             id="path206"
             inkscape:connector-curvature="0" /></g><g
           id="g208"
           transform="translate(78.8408,11.1309)"><path
             d="M 0,0 H -2.39 V 0.863 H 3.428 V 0 H 1.026 V -6.994 H 0 Z"
             style="fill:#231f20;fill-opacity:1;fill-rule:nonzero;stroke:none"
             id="path210"
             inkscape:connector-curvature="0" /></g><path
           d="m 84.157,4.137 h -1.015 v 7.857 h 1.015 z"
           style="fill:#231f20;fill-opacity:1;fill-rule:nonzero;stroke:none"
           id="path212"
           inkscape:connector-curvature="0" /></g></g></g></svg>