<?xml version="1.0" encoding="UTF-8" standalone="no"?>
<!-- Created with Inkscape (http://www.inkscape.org/) -->

<svg
   xmlns:dc="http://purl.org/dc/elements/1.1/"
   xmlns:cc="http://creativecommons.org/ns#"
   xmlns:rdf="http://www.w3.org/1999/02/22-rdf-syntax-ns#"
   xmlns:svg="http://www.w3.org/2000/svg"
   xmlns="http://www.w3.org/2000/svg"
   xmlns:sodipodi="http://sodipodi.sourceforge.net/DTD/sodipodi-0.dtd"
   xmlns:inkscape="http://www.inkscape.org/namespaces/inkscape"
   width="100mm"
   height="100mm"
   viewBox="0 0 100 100"
   version="1.1"
   id="svg4374"
   inkscape:version="0.92.1 r15371"
   sodipodi:docname="mnk-zvir-white.svg">
  <defs
     id="defs4368" />
  <sodipodi:namedview
     id="base"
     pagecolor="#ffffff"
     bordercolor="#666666"
     borderopacity="1.0"
     inkscape:pageopacity="0.0"
     inkscape:pageshadow="2"
     inkscape:zoom="0.35"
     inkscape:cx="-40"
     inkscape:cy="131.24732"
     inkscape:document-units="mm"
     inkscape:current-layer="layer1"
     showgrid="false"
     inkscape:window-width="1366"
     inkscape:window-height="706"
     inkscape:window-x="-8"
     inkscape:window-y="-8"
     inkscape:window-maximized="1" />
  <metadata
     id="metadata4371">
    <rdf:RDF>
      <cc:Work
         rdf:about="">
        <dc:format>image/svg+xml</dc:format>
        <dc:type
           rdf:resource="http://purl.org/dc/dcmitype/StillImage" />
        <dc:title></dc:title>
      </cc:Work>
    </rdf:RDF>
  </metadata>
  <g
     inkscape:label="Layer 1"
     inkscape:groupmode="layer"
     id="layer1"
     transform="translate(0,-197)">
    <path
       inkscape:connector-curvature="0"
       id="path4040"
       style="fill:#ffffff;fill-rule:evenodd;stroke-width:0.44931912"
       d="m 52.891973,279.37914 0.07743,0.26579 0.144294,0.23175 0.157396,0.18874 0.206776,0.15457 0.224201,0.12578 0.269905,0.0919 0.283943,0.0627 0.333392,0.0316 h 0.335857 l 0.379028,-0.0169 0.396503,-0.0461 0.413246,-0.0627 0.430994,-0.0774 0.442189,-0.10857 0.476631,-0.12265 0.476563,-0.15762 0.494225,-0.15457 0.4906,-0.17173 0.508296,-0.18558 0.522335,-0.18878 1.034085,-0.41732 1.06218,-0.45241 1.034085,-0.483 1.016492,-0.46638 0.982171,-0.4664 0.921542,-0.45149 v 0.3114 l -0.01357,0.31171 -0.0177,0.31233 -0.03164,0.30874 -0.04833,0.29729 -0.0633,0.29467 -0.0633,0.29426 -0.09494,0.29745 -0.09494,0.28032 -0.09427,0.27761 -0.129314,0.28015 -0.1266,0.26633 -0.143273,0.26271 -0.157396,0.28083 -0.175859,0.24859 -0.172387,0.26593 -0.1917,0.24913 -0.207492,0.24827 -0.220661,0.24609 -0.224252,0.25183 -0.252429,0.23171 -0.25585,0.24875 -0.269906,0.23467 -0.283943,0.23161 -0.287686,0.21721 -0.315593,0.2348 -0.318399,0.21721 -0.333187,0.21762 -0.350849,0.21727 -0.364087,0.2171 -0.364855,0.2208 -0.396639,0.19968 0.571596,0.0774 0.571579,0.094 0.603142,0.0774 0.619989,0.0627 0.315695,0.0143 h 0.333237 l 0.319149,-0.0143 0.332439,-0.0316 0.3192,-0.0455 0.333203,-0.0771 0.349948,-0.0942 0.33334,-0.12607 0.522199,-0.27726 0.53998,-0.28027 0.539947,-0.2977 0.539843,-0.32629 0.539929,-0.3258 0.53981,-0.34336 0.539981,-0.34025 0.52504,-0.35772 1.06303,-0.73215 1.033183,-0.72928 0.982188,-0.73215 0.922428,-0.70066 0.872282,-0.65211 0.795797,-0.6236 0.69809,-0.52642 0.602344,-0.46891 0.508194,-0.35744 0.364989,-0.24915 0.143275,-0.0766 0.112643,-0.0464 h 0.06244 l 0.03166,0.0315 0.03164,0.20062 0.0177,0.21988 0.01357,0.21763 -0.01357,0.24864 -0.0177,0.24928 -0.03164,0.28027 -0.04833,0.27713 -0.0633,0.28025 -0.07726,0.29787 -0.081,0.30875 -0.0941,0.31129 -0.112472,0.31179 -0.1266,0.32632 -0.143444,0.32579 -0.157396,0.32632 -0.16097,0.32884 -0.172251,0.32619 -0.192603,0.34026 -0.206605,0.32884 -0.204071,0.32591 -0.224218,0.3262 -0.238289,0.32627 -0.252379,0.32583 -0.255902,0.3118 -0.28396,0.31177 -0.286647,0.29468 -0.28493,0.2948 -0.319201,0.28026 -0.318247,0.28028 -0.332489,0.26582 -0.334106,0.24915 -0.364087,0.23121 h 0.444997 l 0.523238,0.0316 0.538942,0.063 0.53998,0.0915 0.25585,0.0487 0.25231,0.0625 0.206726,0.0605 0.207508,0.0797 0.157396,0.0774 0.129314,0.0771 0.0633,0.0459 0.03164,0.0455 0.03164,0.0485 0.01357,0.0461 0.03181,0.15727 v 0.1856 0.2006 l -0.03181,0.2199 -0.03164,0.23211 -0.0633,0.26577 -0.07741,0.26315 -0.07997,0.28027 -0.112643,0.28026 -0.1266,0.30914 -0.143273,0.31145 -0.157567,0.31178 -0.158247,0.32619 -0.19255,0.34296 -0.206608,0.32618 -0.20664,0.34334 -0.220797,0.34025 -0.238237,0.35785 -0.253214,0.34283 -0.270024,0.34332 -0.286649,0.3403 -0.284844,0.34334 -0.318401,0.34025 -0.319148,0.32889 -0.315644,0.32628 -0.350033,0.32578 -0.350814,0.31183 -0.364888,0.29467 -0.364087,0.29475 -0.396503,0.26579 -0.381598,0.26312 -0.41333,0.24875 -0.189897,0.12622 -0.206606,0.0915 -0.22078,0.094 -0.207509,0.0774 -0.223349,0.0771 -0.221546,0.0631 -0.238256,0.0625 -0.238391,0.0461 -0.490719,0.094 -0.508162,0.0461 -0.525789,0.0455 -0.539946,0.0171 h -0.554018 -0.557422 l -0.585633,-0.0171 -0.588186,-0.0283 -1.192486,-0.0486 -1.219661,-0.0142 h -0.477396 l -0.493254,0.0142 -0.476681,0.0316 -0.491452,0.0316 -0.953192,0.0942 -0.936483,0.0915 -0.921525,0.0946 -0.872233,0.0627 -0.414284,0.0142 h -0.413229 l -0.379028,-0.0142 -0.381596,-0.0316 -0.144294,-0.0312 -0.157397,-0.0461 -0.158418,-0.0485 -0.174955,-0.0771 -0.157398,-0.0947 -0.175858,-0.0915 -0.174991,-0.10857 -0.174957,-0.12565 -0.350933,-0.28032 -0.363986,-0.29476 -0.34811,-0.32631 -0.350083,-0.34284 -0.332846,-0.34066 -0.316086,-0.35744 -0.304261,-0.34319 -0.287006,-0.32591 -0.488031,-0.56101 -0.350305,-0.42034 -0.09767,-0.14016 -0.126601,-0.17135 -0.126257,-0.23209 -0.1266,-0.24861 -0.287142,-0.62327 -0.301146,-0.71504 -0.301588,-0.77828 -0.301555,-0.79166 -0.285883,-0.79269 -0.237847,-0.74613 -0.09494,-0.29787 -0.127958,-0.32618 -0.142085,-0.32591 -0.17545,-0.34333 -0.09444,-0.16863 -0.112129,-0.17163 -0.110257,-0.15727 -0.127958,-0.16865 -0.126257,-0.14002 -0.143783,-0.15761 -0.157907,-0.14016 -0.159609,-0.12252 -0.222396,-0.14015 -0.236503,-0.12607 -0.238783,-0.12308 -0.269906,-0.10843 -0.27004,-0.0947 -0.269906,-0.091 -0.287142,-0.0946 -0.30118,-0.0774 -0.5873,-0.15728 -0.619088,-0.15456 -0.586892,-0.15407 -0.587353,-0.17174 -1.079875,-0.35786 -1.032333,-0.34281 -0.968983,-0.3118 -0.872691,-0.26325 -0.762376,-0.2176 -0.619088,-0.15727 -0.254063,-0.0285 -0.20664,-0.031 h -0.159269 l -0.110771,0.0143 -1.11144,0.42036 -1.143939,0.40336 -0.587438,0.20322 -0.602735,0.1856 -0.603142,0.18877 -0.603246,0.16914 -0.636188,0.17119 -0.618677,0.1573 -0.636188,0.13759 -0.650243,0.14015 -0.634384,0.12579 -0.651996,0.10914 -0.666049,0.0946 -0.667923,0.0766 -0.666051,0.0634 -0.667343,0.0455 -0.666544,0.0142 -0.683287,0.017 -0.681841,-0.017 -0.667429,-0.0455 -0.682386,-0.0461 -0.683695,-0.0942 -0.681842,-0.0946 -0.683288,-0.13688 -0.68184,-0.15745 -0.683781,-0.18609 -0.683152,-0.21723 -0.681892,-0.23479 -0.683236,-0.28027 -0.666578,-0.30866 1.127281,-0.74662 1.191568,-0.76373 1.206387,-0.74627 1.173837,-0.72953 1.063932,-0.66914 0.922071,-0.60618 0.380303,-0.28069 0.317396,-0.23424 0.254183,-0.21763 0.174871,-0.18574 -0.492353,-0.12607 -0.507786,-0.10856 -0.508705,-0.0915 -0.53998,-0.077 -1.095088,-0.14016 -1.159015,-0.12607 -1.190053,-0.12308 -1.223625,-0.14016 -0.618185,-0.0942 -0.636137,-0.10843 -0.618593,-0.10913 -0.634895,-0.12579 -0.652029,-0.15457 -0.634401,-0.1712 -0.6361369,-0.2001 -0.6349455,-0.22025 -0.6501917,-0.26329 -0.6357793,-0.28014 -0.6190867,-0.31184 -0.6343841,-0.35779 -0.6203459,-0.38888 -0.6190017,-0.43484 -0.6186783,-0.46601 -0.6041299,-0.51224 -0.5873012,-0.57777 -0.5874374,-0.60603 -0.5714934,-0.66647 -0.5715956,-0.7322 0.8261012,-0.0774 0.7936181,-0.077 0.7782359,-0.0487 0.7622579,-0.0601 0.7453272,-0.0627 0.7310849,-0.0489 0.7149368,-0.0601 0.7131333,-0.0801 0.6994865,-0.077 0.6989591,-0.10856 0.6823857,-0.1231 0.683287,-0.15727 0.348995,-0.092 0.332847,-0.0937 0.35044,-0.0919 0.333204,-0.1117 0.348689,-0.12309 0.34913,-0.12578 0.334514,-0.1376 0.348638,-0.15712 -0.508144,-0.32577 -0.524138,-0.3118 -0.524003,-0.29427 -0.524138,-0.2948 -1.07928,-0.56093 L 9.3527498,265.52463 8.8129396,265.24432 8.272958,264.9456 7.733165,264.65134 7.2090266,264.33955 6.6850242,264.01371 6.1767445,263.68704 5.6683968,263.33013 5.1773201,262.95525 4.7008088,262.55194 4.2237702,262.13158 3.7788744,261.6822 3.3509944,261.21367 2.9377481,260.70126 2.5412454,260.15785 2.1595635,259.58332 1.8108752,258.97417 1.4935129,258.32172 1.1919245,257.62104 0.90607565,256.8918 0.66778604,256.09924 0.44537219,255.25839 0.26988799,254.37217 0.11196413,253.42212 0,252.42718 l 0.47703866,0.18829 0.61855924,0.24926 0.7152943,0.27713 0.8253185,0.34295 0.8889919,0.34374 0.921526,0.37136 0.9675878,0.37477 0.9695277,0.37179 0.9531924,0.34349 0.9201479,0.32615 0.856968,0.29466 0.7785931,0.2344 0.3657555,0.10857 0.317481,0.0774 0.301605,0.0628 0.269888,0.0455 0.222448,0.0319 0.189506,0.017 0.159608,-0.017 0.110433,-0.0319 -0.09495,-0.12266 -0.159268,-0.15762 -0.221052,-0.18575 -0.270042,-0.21721 -0.699078,-0.5434 -0.8413982,-0.68668 -0.4608397,-0.38883 -0.4923528,-0.41786 -0.5241216,-0.46851 -0.5240023,-0.48086 -0.5399461,-0.51495 -0.5399802,-0.54302 -0.539793,-0.57494 -0.5399973,-0.60659 -0.539793,-0.63761 -0.5079224,-0.66966 -0.491451,-0.69922 L 3.366801,247.809 2.9219394,247.06272 2.5094588,246.28479 2.1437036,245.47659 1.810874,244.6514 1.5246168,243.79654 1.3021689,242.9095 l -0.1749397,-0.90209 -0.094948,-0.93252 -0.0474741,-0.96388 0.0319897,-0.97943 0.1104327,-0.99542 0.2065891,-1.02659 0.7940945,0.85497 0.9378272,1.04246 0.4906003,0.54341 0.5258741,0.5606 0.5227432,0.52939 0.5394527,0.52727 0.2698879,0.23328 0.2700412,0.23337 0.2699561,0.21851 0.2540972,0.20185 0.2698881,0.1875 0.2541994,0.1697 0.2540973,0.1561 0.2540974,0.10843 0.2382554,0.10885 0.2383748,0.0787 0.2224479,0.0454 0.2386639,0.0169 0.205347,-0.0169 0.2067253,-0.0454 0.1907985,-0.0946 0.1907984,-0.10843 -0.2540973,-0.31044 -0.2542335,-0.35766 -0.2540974,-0.38884 -0.2540462,-0.4364 -0.2540973,-0.48162 -0.2542334,-0.51332 -0.2382556,-0.52788 -0.2540974,-0.5766 -0.2224478,-0.59046 -0.2383917,-0.62181 -0.2052109,-0.63786 -0.2067253,-0.65362 -0.1911727,-0.65219 -0.1736806,-0.66903 -0.1596084,-0.68515 -0.1262572,-0.6835 -0.1279587,-0.66936 -0.094607,-0.66764 -0.06449,-0.66958 -0.047134,-0.65342 -0.017016,-0.6522 v -0.62183 l 0.03165,-0.59238 0.080314,-0.59045 0.094949,-0.54507 0.1434434,-0.52749 0.1582471,-0.48187 0.2224479,-0.45216 0.2378984,-0.40488 0.2861041,-0.37304 0.3329315,-0.31032 0.3820053,-0.28027 0.506476,0.88672 0.5399803,0.88664 0.2861211,0.45035 0.2871419,0.45217 0.3169879,0.43447 0.3332038,0.42036 0.3491819,0.40485 0.3657554,0.40335 0.20533,0.18724 0.206606,0.18581 0.207151,0.17177 0.222448,0.17182 0.238238,0.17009 0.238392,0.15592 0.236503,0.15559 0.254591,0.14017 0.269905,0.13845 0.269888,0.12478 0.285389,0.12423 0.303358,0.11013 -0.081,-0.7464 -0.09444,-0.98094 -0.09461,-1.18125 -0.09631,-1.35301 -0.03165,-0.71503 -0.01532,-0.74654 -0.03114,-0.77794 v -0.77793 -0.79368 l 0.01531,-0.79246 0.01531,-0.79355 0.04748,-0.79218 0.04764,-0.77794 0.07997,-0.76242 0.07929,-0.74615 0.110263,-0.71541 0.127959,-0.6849 0.157907,-0.63784 0.175348,-0.60623 0.190883,-0.54356 0.238307,-0.51326 0.238255,-0.43614 0.285748,-0.37359 0.317482,-0.31027 0.332846,-0.24861 0.366146,-0.15577 0.412447,-0.0773 0.444895,0.0152 0.03164,0.03 0.06296,0.0788 0.09494,0.14045 0.112128,0.16969 0.285746,0.43627 0.332831,0.55907 0.397404,0.62232 0.412446,0.66915 0.444896,0.63784 0.427744,0.60645 0.175484,0.23314 0.190799,0.21749 0.191308,0.21699 0.188995,0.21889 0.38209,0.3878 0.396503,0.37426 0.397524,0.32642 0.396146,0.31026 0.397897,0.2643 0.380202,0.23337 0.36499,0.18699 0.334599,0.17171 0.317396,0.12308 0.285339,0.0946 0.142428,0.0152 0.111629,0.03 h 0.110772 0.112128 0.09444 l 0.07879,-0.0142 0.06466,-0.0316 0.0473,-0.0472 0.03164,-0.0316 0.01531,-0.0614 0.01531,-0.093 0.01531,-0.12451 0.03114,-0.29584 0.01701,-0.3891 0.04697,-1.01115 0.06466,-1.27576 0.04747,-0.71462 0.0633,-0.7469 0.07879,-0.79192 0.09632,-0.82523 0.110771,-0.82382 0.143783,-0.85524 0.173153,-0.8392 0.207134,-0.84086 0.09494,-0.37358 0.111286,-0.38882 0.111115,-0.37309 0.127443,-0.35785 0.269905,-0.71512 0.285849,-0.68336 0.157906,-0.32759 0.143785,-0.32604 0.157907,-0.31172 0.159097,-0.29447 0.175484,-0.28031 0.157908,-0.28027 0.174956,-0.24889 0.157737,-0.24878 0.175484,-0.21748 0.17545,-0.21737 0.173203,-0.18748 0.159609,-0.1701 0.17494,-0.15575 0.173698,-0.14016 0.159608,-0.12451 0.159098,-0.0927 0.173698,-0.0628 0.159608,-0.0458 0.157737,-0.0316 h 0.143784 l 0.142086,0.0316 0.143273,0.0458 0.143784,0.0943 0.126258,0.10857 0.06381,0.0771 0.06279,0.14016 0.06466,0.17162 0.0633,0.21698 0.142086,0.54354 0.17499,0.66953 0.222397,0.74627 0.254642,0.79421 0.141914,0.41882 0.175093,0.40462 0.175349,0.42036 0.205347,0.40332 0.254046,0.43627 0.253741,0.41884 0.269904,0.42063 0.28624,0.38882 0.285356,0.35758 0.302983,0.34158 0.286105,0.32757 0.285354,0.27912 0.285883,0.24851 0.254098,0.219 0.254046,0.17037 0.238307,0.12422 0.110429,0.0471 0.09494,0.0319 0.09631,0.0301 0.09494,0.0152 h 0.07879 l 0.07997,-0.03 0.06364,-0.0152 0.06296,-0.0472 0.127786,-0.14016 0.126772,-0.14015 0.111628,-0.14016 0.0946,-0.15475 0.0793,-0.14015 0.0633,-0.15576 0.06466,-0.15577 0.06296,-0.17022 0.09494,-0.34345 0.09631,-0.38745 0.07879,-0.40462 0.07913,-0.43635 0.09614,-0.49741 0.126257,-0.5278 0.159609,-0.57645 0.205328,-0.62184 0.127443,-0.32606 0.1266,-0.35753 0.159098,-0.35758 0.175501,-0.38888 0.188995,-0.38905 0.207134,-0.40489 0.237762,-0.43448 0.25459,-0.45211 0.492489,-0.83972 0.53981,-0.87072 0.539436,-0.87113 0.556197,-0.85484 0.571084,-0.83959 0.587438,-0.79359 0.285832,-0.38883 0.285747,-0.35758 0.285355,-0.34206 0.28624,-0.32731 0.269939,-0.31052 0.287006,-0.28021 0.270041,-0.26475 0.269905,-0.23298 0.269531,-0.21701 0.269905,-0.17184 0.252839,-0.15456 0.238187,-0.10999 0.238392,-0.093 0.238255,-0.0454 h 0.222448 l 0.222447,0.0301 0.207135,0.0784 0.189011,0.109 0.191292,0.17022 0.159438,0.20299 0.03131,0.10857 0.01701,0.1857 v 0.28026 l -0.01701,0.35758 -0.04833,0.91831 -0.06381,1.1355 -0.01357,0.6522 -0.01718,0.68475 v 0.71516 l 0.01718,0.7309 0.04577,0.76219 0.06347,0.77794 0.09802,0.77821 0.108557,0.7764 0.08031,0.3587 0.081,0.35744 0.09154,0.35759 0.114686,0.35758 0.109414,0.34165 0.143273,0.35744 0.126601,0.32759 0.143272,0.34205 0.158418,0.32578 0.157736,0.31211 0.16046,0.31028 0.172778,0.29592 0.178019,0.29592 0.171929,0.27915 0.189369,0.26426 0.192601,0.249 0.17494,0.24865 0.18954,0.23301 0.189862,0.21901 0.1917,0.20135 0.174957,0.17196 0.189896,0.17009 0.175128,0.15575 0.189846,0.14016 0.175007,0.10914 0.158247,0.0929 0.17494,0.0783 0.157566,0.0618 0.144124,0.0316 0.143273,0.0152 0.143273,-0.0152 0.109072,-0.0316 0.06601,-0.0315 0.0633,-0.0458 0.0633,-0.0784 0.0633,-0.10899 0.126601,-0.24852 0.126771,-0.31054 0.300652,-0.80946 0.35085,-0.9794 0.174956,-0.52943 0.206743,-0.54318 0.206589,-0.56081 0.221563,-0.54319 0.254998,-0.54505 0.253332,-0.51342 0.125743,-0.24851 0.144124,-0.24916 0.143273,-0.23309 0.143273,-0.2174 0.729827,-1.01116 0.72894,-0.97941 0.382499,-0.48188 0.364088,-0.46768 0.381597,-0.45064 0.364853,-0.43447 0.364989,-0.42034 0.381598,-0.40485 0.350031,-0.38912 0.364853,-0.35758 0.347379,-0.34151 0.336812,-0.3121 0.332302,-0.27876 0.333323,-0.26439 0.315609,-0.23326 0.301724,-0.18722 0.287363,-0.17032 0.270042,-0.12422 0.269939,-0.0943 0.252396,-0.0619 0.224251,-0.0152 0.220645,0.0316 0.192601,0.0613 0.172252,0.12451 0.16114,0.1556 0.1266,0.20197 0.111629,0.26416 0.07741,0.31179 0.0633,0.35758 0.03437,0.41911 -0.03437,0.24901 -0.0633,0.29579 -0.09494,0.32606 -0.0941,0.37308 -0.253332,0.80968 -0.286648,0.85526 -0.287499,0.82381 -0.25231,0.76191 -0.207628,0.59059 -0.125743,0.40485 -0.269956,0.94954 -0.25585,0.93237 -0.20407,0.90251 -0.174957,0.85534 -0.07997,0.38888 -0.04934,0.37304 -0.0456,0.35758 -0.01701,0.31028 v 0.29605 l 0.01701,0.24892 0.03164,0.21749 0.0633,0.18694 0.09494,0.17037 0.09427,0.11027 0.112471,0.0614 0.125743,0.0152 0.129315,-0.0152 0.140728,-0.0774 0.160969,-0.10857 0.158247,-0.14016 0.174958,-0.17162 0.188994,-0.21735 0.190033,-0.233 0.206606,-0.24879 0.43084,-0.57645 0.476648,-0.63787 0.508194,-0.66756 0.553985,-0.68517 0.287499,-0.34205 0.30169,-0.32578 0.301589,-0.32759 0.315593,-0.31044 0.319302,-0.3118 0.332336,-0.27874 0.350816,-0.2643 0.347377,-0.23337 0.367542,-0.21852 0.364853,-0.17044 0.364088,-0.1556 0.396503,-0.109 0.1118,-0.0318 h 0.09494 l 0.08083,0.0152 0.07742,0.0312 0.0633,0.03 0.04833,0.0631 0.04917,0.0628 0.03164,0.0773 0.01357,0.0929 0.01702,0.093 0.01531,0.10829 v 0.11013 l -0.01531,0.24889 -0.04833,0.27879 -0.0633,0.28026 -0.07997,0.29605 -0.09494,0.27915 -0.09494,0.29578 -0.220781,0.51328 -0.192601,0.4204 -0.283943,0.55942 -0.301691,0.66909 -0.3192,0.74669 -0.318247,0.80779 -0.301555,0.87126 -0.284079,0.88651 -0.1266,0.45062 -0.129314,0.46749 -0.109072,0.45063 -0.09767,0.46615 -0.09494,0.45187 -0.0633,0.4505 -0.06347,0.43614 -0.04816,0.43485 -0.01531,0.42036 v 0.40335 l 0.01531,0.40471 0.0342,0.37332 0.0633,0.35758 0.07742,0.34309 0.111628,0.31027 0.1266,0.29583 0.160971,0.26309 0.189895,0.23479 0.220782,0.20163 0.254947,0.18696 0.729877,0.71514 0.732413,0.69965 0.712231,0.65347 0.714886,0.60622 0.714936,0.57518 0.714801,0.56045 0.683288,0.51328 0.698176,0.49766 0.666545,0.45048 0.68315,0.45064 0.651638,0.40486 0.634878,0.38858 1.254781,0.73091 1.173836,0.66936 1.111525,0.60634 1.03053,0.57493 0.477447,0.28031 0.461691,0.26425 0.44219,0.26468 0.414283,0.28027 0.381564,0.26326 0.364087,0.28028 0.33414,0.26452 0.300652,0.29592 0.269906,0.27927 0.256037,0.3113 0.206589,0.31056 0.172302,0.32731 0.07997,0.15455 0.0633,0.17148 0.0633,0.18738 0.04934,0.1702 0.0633,0.37311 0.06261,0.38932 0.03164,0.40484 0.01753,0.40435 v 0.41911 l 0.01357,0.43612 v 0.45051 l 0.01753,0.45214 0.03181,0.45035 0.0456,0.46617 0.06603,0.46595 0.09494,0.46767 0.0456,0.23328 0.07997,0.23335 0.0633,0.23301 0.09494,0.21699 0.04917,0.0932 0.06244,0.11014 0.081,0.12422 0.109071,0.12451 0.286733,0.31032 0.350851,0.37331 0.396501,0.43642 0.459036,0.48162 0.494158,0.52774 0.539026,0.59225 0.270093,0.31026 0.253195,0.32758 0.269889,0.34158 0.269904,0.35756 0.557592,0.76243 0.585498,0.80758 0.619989,0.87098 0.651586,0.93377 0.698092,0.96376 0.760726,1.01123 0.28755,0.35779 0.301555,0.34283 0.315729,0.34068 0.335892,0.35743 0.333204,0.35771 0.333203,0.35695 0.315729,0.37484 0.3192,0.37234 0.205705,0.24825 0.221681,0.2346 0.223299,0.20328 0.239209,0.20011 0.476493,0.35729 0.459036,0.3118 0.445935,0.28079 0.3956,0.28029 0.174957,0.12308 0.175076,0.14016 0.140715,0.14016 0.129314,0.14016 0.221546,0.32579 0.189149,0.31179 0.08083,0.14016 0.07997,0.15728 0.04663,0.13716 0.04833,0.14017 0.04577,0.14015 0.01753,0.12607 0.03164,0.14016 v 0.14015 0.12324 0.14001 l -0.01531,0.14015 -0.03437,0.12579 -0.07743,0.26324 -0.111629,0.28031 -0.1266,0.28013 -0.174956,0.29481 -0.189897,0.31179 -0.223349,0.32632 -0.253332,0.34283 -0.269906,0.35779 -0.1917,0.24881 -0.2039,0.20003 -0.206776,0.20279 -0.224219,0.15457 -0.220643,0.15727 -0.224251,0.14016 -0.235688,0.12309 -0.238237,0.10899 -0.508349,0.20322 -0.525789,0.20278 -0.539946,0.20004 -0.553848,0.2348 -0.637583,0.28028 -0.648932,0.26313 -0.683152,0.26578 -0.714936,0.26329 -0.746587,0.28025 -0.779086,0.26315 -0.808983,0.28025 -0.82389,0.28033 -0.873168,0.28068 -0.907367,0.31143 -0.936484,0.31166 -0.967367,0.3088 -1.002299,0.3433 -1.030666,0.35731 -1.07974,0.37234 -1.111439,0.38882 -0.206641,0.0797 -0.238254,0.046 -0.253332,0.0316 -0.269004,0.0316 -0.28755,0.0143 H 79.359315 79.05776 l -0.305093,-0.0143 -0.30084,-0.0316 -0.301555,-0.0316 -0.301537,-0.046 -0.284096,-0.0627 -0.269889,-0.0631 -0.2559,-0.0627 -0.238256,-0.0774 -0.22078,-0.0912 -0.509096,0.51147 -0.539946,0.46641 -0.556554,0.43484 -0.603229,0.38885 -0.602376,0.35744 -0.634895,0.3118 -0.634792,0.29465 -0.634895,0.24879 -0.651502,0.21758 -0.651622,0.20278 -0.652487,0.15762 -0.633908,0.13718 -0.617283,0.11112 -0.620874,0.0919 -0.588169,0.0627 -0.554019,0.0461 -0.539946,0.0169 h -0.494139 l -0.459937,-0.0169 -0.427251,-0.0316 -0.382499,-0.0461 -0.332438,-0.0627 -0.269905,-0.0777 -0.224252,-0.094 -0.158247,-0.0915 -0.09427,-0.10871 -0.01753,-0.12607 0.04917,-0.12308 0.125914,-0.12579 0.206657,-0.12251 0.287501,-0.14016 0.379027,-0.14016 0.605813,-0.35779 0.571579,-0.35771 0.539845,-0.34297 0.490685,-0.32577 0.459802,-0.3122 0.413381,-0.31193 0.382466,-0.27714 0.349948,-0.26627 0.315727,-0.26312 0.286599,-0.24841 0.253332,-0.23465 0.206656,-0.21758 0.17494,-0.21727 0.158247,-0.20323 0.111629,-0.18559 0.09494,-0.1857 0.0633,-0.17215 0.01701,-0.15458 v -0.15729 l -0.0308,-0.14016 -0.04934,-0.12308 -0.09494,-0.12578 -0.111629,-0.12266 -0.1266,-0.10899 -0.17494,-0.094 -0.175007,-0.0946 -0.221683,-0.0916 -0.238238,-0.0771 -0.254965,-0.08 -0.284845,-0.0774 -0.30169,-0.0597 -0.332336,-0.063 -0.652489,0.46638 -0.619989,0.43447 -0.571494,0.40638 -0.553984,0.34031 -0.269905,0.17122 -0.269904,0.14015 -0.270076,0.14017 -0.269905,0.12308 -0.269906,0.12607 -0.270023,0.0915 -0.28755,0.0942 -0.301555,0.0774 -0.300653,0.0625 -0.319336,0.0461 -0.315593,0.0316 -0.333339,0.0169 h -0.363951 l -0.368445,-0.0169 -0.395736,-0.0152 -0.414149,-0.0485 -0.427386,-0.0601 -0.444862,-0.0801 -0.491587,-0.0915 -0.493238,-0.10857 -0.53998,-0.12608 -0.554749,-0.14015 -0.602344,-0.16863 -0.62089,-0.18826 1.430724,-1.07301 1.332084,-1.00937 0.602377,-0.48395 0.571595,-0.47999 0.255902,-0.23463 0.252293,-0.23478 0.224201,-0.23162 0.221682,-0.24874 0.192569,-0.2348 0.171383,-0.23121 0.160968,-0.23467 0.126601,-0.24915 0.111628,-0.23121 0.09494,-0.23476 0.0633,-0.24878 0.03166,-0.24914 0.01701,-0.24824 -0.01701,-0.24925 -0.04917,-0.24879 -0.06347,-0.26314 -0.109071,-0.24874 -0.1283,-0.28067 -0.173187,-0.26578 -0.206606,-0.28031 -0.889877,0.43793 -0.935581,0.48035 -0.494293,0.23481 -0.50816,0.21707 -0.269939,0.10857 -0.270042,0.0946 -0.283943,0.0771 -0.287634,0.0771 -0.301555,0.0771 -0.301589,0.063 -0.315694,0.046 -0.3192,0.0312 -0.332302,0.0169 h -0.350849 l -0.347379,-0.0169 -0.367507,-0.0312 -0.379028,-0.046 -0.381597,-0.063 -0.396639,-0.0771 -0.413246,-0.10857 -0.428288,-0.14015 -0.444861,-0.14017 -0.462491,-0.18555 -0.459036,-0.20327 0.349896,-0.14017 0.379045,-0.15456 0.399191,-0.18569 0.410677,-0.20364 0.430858,-0.21674 0.428152,-0.23478 0.444981,-0.23211 0.444896,-0.26543 0.444997,-0.2631 0.442326,-0.26632 0.430859,-0.27713 0.410541,-0.29742 0.413348,-0.28029 0.381596,-0.28018 0.382585,-0.29474 0.333237,-0.28032 0.0456,-0.0459 0.03164,-0.0455 0.01702,-0.0485 0.01753,-0.0605 -0.01753,-0.0485 -0.01702,-0.063 -0.01531,-0.0597 -0.04833,-0.0634 -0.09494,-0.14015 -0.126601,-0.12251 -0.143274,-0.14002 -0.175074,-0.14016 -0.378909,-0.28027 -0.413246,-0.24879 -0.382585,-0.23465 -0.315592,-0.17171 -1.114095,0.63757 -1.030665,0.59265 -0.508195,0.28013 -0.508296,0.24839 -0.491452,0.23211 -0.50833,0.18823 -0.254949,0.092 -0.253194,0.0801 -0.269906,0.0601 -0.255135,0.0481 -0.269904,0.0464 -0.270433,0.0143 -0.269905,0.017 h -0.28408 -0.284215 l -0.287158,-0.031 -0.304243,-0.0464 -0.298492,-0.0628 -0.304243,-0.0774 -0.316103,-0.0937 -0.333341,-0.10899 -0.332828,-0.12564 0.07997,-0.12309 0.109586,-0.12621 0.126257,-0.14002 0.1266,-0.12308 0.33283,-0.26277 0.367559,-0.28027 0.396639,-0.28026 0.396095,-0.28032 0.396009,-0.29462 0.367541,-0.29785 0.174958,-0.14016 0.158247,-0.15424 0.142932,-0.15456 0.1266,-0.15728 0.09494,-0.15457 0.08083,-0.15423 0.06244,-0.1573 0.03164,-0.15456 0.01357,-0.15763 -0.0308,-0.16864 -0.0633,-0.15727 -0.07827,-0.15458 -0.143273,-0.17124 -0.157396,-0.17171 -0.206743,-0.15491 -0.255356,-0.17121 -0.744289,-0.0947 -0.700338,0.032 -0.666595,0.10815 -0.619853,0.21761 -0.571578,0.29731 -0.539844,0.38897 -0.508296,0.44924 -0.460687,0.52902 -0.427796,0.59209 -0.397897,0.65197 -0.364496,0.68365 -0.317396,0.74932 -0.285832,0.77552 -0.269956,0.82635 -0.222397,0.83821 -0.190934,0.85521 -0.158248,0.88635 -0.143273,0.88638 -0.09461,0.88725 -0.08031,0.88637 -0.04747,0.86919 -0.01531,0.87242 v 0.84122 l 0.03166,0.80619 0.04747,0.77815 0.07997,0.74669 0.09494,0.68362 0.127443,0.65461 0.142586,0.57509 0.159608,0.5294 0.189489,0.45152 0.206249,0.37181 0.159437,0.0774 0.174192,0.0632 0.174854,0.0454 0.190935,0.0485 0.206606,0.0285 0.20533,0.0316 0.222448,0.017 0.222958,0.0142 h 0.476494 l 0.476682,-0.0315 0.491042,-0.0461 0.507803,-0.0625 0.968133,-0.16865 0.890285,-0.17203 0.763653,-0.14016 0.568431,-0.0942 v 0.2948 l -0.02859,0.2658 -0.04867,0.24915 -0.07776,0.23121 -0.07997,0.2208 -0.0975,0.18559 -0.09223,0.18571 -0.114343,0.1721 -0.235687,0.29427 -0.255356,0.28029 -0.221682,0.26316 -0.189013,0.28027 -0.0177,0.32884 0.03164,0.29479 0.09494,0.24875 0.111629,0.20275 0.158417,0.16913 0.206606,0.14017 0.2242,0.10857 0.269956,0.063 0.283943,0.0454 0.301554,0.0169 h 0.332848 l 0.349896,-0.0454 0.379929,-0.0487 0.381597,-0.0771 0.395738,-0.0774 0.399207,-0.10801 0.410678,-0.12606 0.414097,-0.12309 0.413263,-0.14015 0.413331,-0.14016 0.823923,-0.29476 0.764062,-0.31144 1.349814,-0.5434 0.935548,-0.34336 0.04934,0.43447 0.03164,0.4349 -0.0177,0.40586 -0.0456,0.40333 -0.07997,0.38933 -0.09494,0.37489 -0.129314,0.33976 -0.140714,0.34387 -0.174958,0.34013 -0.174956,0.31144 -0.207543,0.29729 -0.206606,0.29481 -0.238391,0.28027 -0.220645,0.26312 -0.238256,0.24877 -0.255883,0.23465 -0.473993,0.43484 -0.47663,0.38897 -0.444896,0.34337 -0.413348,0.29426 -0.319064,0.24914 -0.252429,0.20324 -0.081,0.091 -0.0633,0.0774 -0.0308,0.0628 z" />
    <path
       inkscape:connector-curvature="0"
       id="path4042"
       style="fill:#241f1c;fill-rule:evenodd;stroke-width:0.44931912"
       d="m 31.900095,259.52089 h 0.09631 l 0.07861,-0.0771 0.06347,-0.12579 0.04747,-0.17162 0.04747,-0.23156 0.01531,-0.28032 0.0325,-0.32577 v -0.37486 l 0.01701,-0.83821 v -0.99541 l 0.01532,-1.08951 0.01531,-1.19815 0.03166,-0.60701 0.03164,-0.63721 0.04697,-0.63799 0.06381,-0.63757 0.07997,-0.65251 0.09494,-0.63811 0.110429,-0.65336 0.127786,-0.63633 0.159098,-0.62211 0.173698,-0.62183 0.207133,-0.60772 0.222414,-0.59071 0.269939,-0.55942 0.285849,-0.54457 0.316903,-0.51363 0.364972,-0.48178 0.413757,-0.49763 0.460295,-0.46615 0.475286,-0.42051 0.492846,-0.38907 0.523628,-0.35746 0.539946,-0.32605 0.556146,-0.29578 0.555295,-0.2648 0.572887,-0.24874 0.587386,-0.21737 0.586945,-0.18573 0.587301,-0.17184 0.58742,-0.15575 0.571596,-0.14016 0.588611,-0.10856 0.571222,-0.10857 0.555243,-0.0929 0.540338,-0.0631 0.523644,-0.0614 0.508655,-0.0628 0.951422,-0.0928 0.824417,-0.0619 0.717966,-0.0627 0.554376,-0.0618 0.221154,-0.0472 0.177645,-0.0312 0.126429,-0.0618 0.0633,-0.0628 0.06278,-0.1245 0.03164,-0.12422 -0.03164,-0.12422 -0.06278,-0.12451 -0.0975,-0.12422 -0.143783,-0.10886 -0.189403,-0.1245 -0.221139,-0.0929 -0.255492,-0.10857 -0.298492,-0.0788 -0.336317,-0.0773 -0.364582,-0.0627 -0.413603,-0.0458 -0.427794,-0.0471 h -0.476699 -0.492489 l -0.539845,0.0316 -0.555788,0.0472 -0.587283,0.077 -0.618679,0.0933 -0.651502,0.12422 -0.681978,0.1561 -0.699503,0.18735 -0.729332,0.21698 -0.746587,0.26481 -0.778184,0.27873 -0.793958,0.32732 -0.825677,0.37372 -0.841126,0.4031 -0.859145,0.43623 -0.872641,0.49766 -0.904425,0.52907 -0.413246,0.29462 -0.396639,0.35758 -0.350304,0.42047 -0.332846,0.4819 -0.301692,0.51344 -0.285746,0.57453 -0.254047,0.60784 -0.222448,0.63673 -0.205347,0.68475 -0.174939,0.69953 -0.159778,0.71616 -0.1266,0.74677 -0.111629,0.74642 -0.09461,0.76066 -0.06364,0.76382 -0.04713,0.74618 -0.03164,0.76064 v 0.73268 0.72915 l 0.03164,0.70062 0.04713,0.68364 0.04747,0.65211 0.07913,0.60951 0.0958,0.57451 0.111114,0.52947 0.110429,0.48049 0.143273,0.42037 0.143783,0.37178 0.157907,0.31183 0.17499,0.23462 0.189898,0.15424 z" />
  </g>
</svg>
