<?xml version="1.0" encoding="UTF-8" standalone="no"?>
<!-- Generator: Adobe Illustrator 18.0.0, SVG Export Plug-In . SVG Version: 6.00 Build 0)  -->

<svg
   xmlns:dc="http://purl.org/dc/elements/1.1/"
   xmlns:cc="http://creativecommons.org/ns#"
   xmlns:rdf="http://www.w3.org/1999/02/22-rdf-syntax-ns#"
   xmlns:svg="http://www.w3.org/2000/svg"
   xmlns="http://www.w3.org/2000/svg"
   xmlns:sodipodi="http://sodipodi.sourceforge.net/DTD/sodipodi-0.dtd"
   xmlns:inkscape="http://www.inkscape.org/namespaces/inkscape"
   version="1.1"
   id="Capa_1"
   x="0px"
   y="0px"
   viewBox="0 0 424 640"
   xml:space="preserve"
   sodipodi:docname="ico-empty-ava-424x640.svg"
   width="424"
   height="640"
   inkscape:version="0.92.1 r15371"><metadata
   id="metadata51"><rdf:RDF><cc:Work
       rdf:about=""><dc:format>image/svg+xml</dc:format><dc:type
         rdf:resource="http://purl.org/dc/dcmitype/StillImage" /><dc:title></dc:title></cc:Work></rdf:RDF></metadata><defs
   id="defs49" /><sodipodi:namedview
   pagecolor="#ffffff"
   bordercolor="#666666"
   borderopacity="1"
   objecttolerance="10"
   gridtolerance="10"
   guidetolerance="10"
   inkscape:pageopacity="0"
   inkscape:pageshadow="2"
   inkscape:window-width="1366"
   inkscape:window-height="706"
   id="namedview47"
   showgrid="false"
   inkscape:zoom="0.71929825"
   inkscape:cx="196.2223"
   inkscape:cy="319.79211"
   inkscape:window-x="-8"
   inkscape:window-y="-8"
   inkscape:window-maximized="1"
   inkscape:current-layer="g14" />
<g
   id="g14"
   transform="matrix(2.8302977,0,0,2.8301916,92.406638,348.99152)">
	
	<g
   id="g12">
		
	</g>
<rect
   style="fill:#b51120;fill-opacity:1;stroke-width:5.94391155"
   id="rect4502"
   width="150.51421"
   height="226.83977"
   x="-33.002407"
   y="-123.66354" /><g
   id="g8"
   transform="matrix(4.4026086,0,0,4.4026086,83.567121,-357.4718)">
		<path
   style="fill:#e8e8e7;fill-opacity:1;stroke-width:12.46045971"
   d="m 212.62891,57.777344 c -134.61287,0 -121.492191,99.394536 -121.492191,99.394536 v 63.87109 c -6.728774,6.08059 -11.039063,14.7654 -11.039063,24.48437 v 44.1836 c 0,11.63785 6.118735,21.88022 15.277344,27.79883 11.04017,48.05909 39.94727,82.64843 39.94727,82.64843 v 40.3711 c -0.0125,14.70306 -8.06069,28.24829 -20.98243,35.30078 L 15.8125,529.57031 C 11.228691,532.06958 1.2864849,612.06251 2.2026366e-6,639.99997 H 423.99999 C 419.57749,612.08069 411.77618,532.8447 406.62891,530.28125 L 301.125,477.53711 c -13.632,-6.81574 -22.24219,-20.74747 -22.24219,-35.98633 V 400.1582 c 2.96565,-3.37672 6.35441,-7.71283 9.98047,-12.83398 14.37964,-20.31017 25.25816,-42.65021 32.79688,-66.08789 13.53231,-4.17418 23.50195,-16.6728 23.50195,-31.52539 v -44.1836 c 0,-9.71897 -4.3247,-18.40378 -11.04102,-24.48437 v -63.87109 c 0,0 13.12068,-99.394536 -121.49218,-99.394536 z"
   transform="matrix(0.08025236,0,0,0.08025537,-26.397125,53.187011)"
   id="path2"
   inkscape:connector-curvature="0"
   sodipodi:nodetypes="sccsscccccccccscccssccs" />
		<g
   id="g6">
			
		</g>
	</g></g>
<g
   id="g16"
   transform="translate(0,582)">
</g>
<g
   id="g18"
   transform="translate(0,582)">
</g>
<g
   id="g20"
   transform="translate(0,582)">
</g>
<g
   id="g22"
   transform="translate(0,582)">
</g>
<g
   id="g24"
   transform="translate(0,582)">
</g>
<g
   id="g26"
   transform="translate(0,582)">
</g>
<g
   id="g28"
   transform="translate(0,582)">
</g>
<g
   id="g30"
   transform="translate(0,582)">
</g>
<g
   id="g32"
   transform="translate(0,582)">
</g>
<g
   id="g34"
   transform="translate(0,582)">
</g>
<g
   id="g36"
   transform="translate(0,582)">
</g>
<g
   id="g38"
   transform="translate(0,582)">
</g>
<g
   id="g40"
   transform="translate(0,582)">
</g>
<g
   id="g42"
   transform="translate(0,582)">
</g>
<g
   id="g44"
   transform="translate(0,582)">
</g>
</svg>