<?xml version="1.0" encoding="UTF-8" standalone="no"?>
<!-- Generator: Adobe Illustrator 18.0.0, SVG Export Plug-In . SVG Version: 6.00 Build 0)  -->

<svg
   xmlns:dc="http://purl.org/dc/elements/1.1/"
   xmlns:cc="http://creativecommons.org/ns#"
   xmlns:rdf="http://www.w3.org/1999/02/22-rdf-syntax-ns#"
   xmlns:svg="http://www.w3.org/2000/svg"
   xmlns="http://www.w3.org/2000/svg"
   xmlns:sodipodi="http://sodipodi.sourceforge.net/DTD/sodipodi-0.dtd"
   xmlns:inkscape="http://www.inkscape.org/namespaces/inkscape"
   version="1.1"
   id="Capa_1"
   x="0px"
   y="0px"
   viewBox="0 0 150 150"
   xml:space="preserve"
   sodipodi:docname="ico-empty-ava-150.svg"
   width="150"
   height="150"
   inkscape:version="0.92.1 r15371"><metadata
   id="metadata51"><rdf:RDF><cc:Work
       rdf:about=""><dc:format>image/svg+xml</dc:format><dc:type
         rdf:resource="http://purl.org/dc/dcmitype/StillImage" /><dc:title></dc:title></cc:Work></rdf:RDF></metadata><defs
   id="defs49" /><sodipodi:namedview
   pagecolor="#ffffff"
   bordercolor="#666666"
   borderopacity="1"
   objecttolerance="10"
   gridtolerance="10"
   guidetolerance="10"
   inkscape:pageopacity="0"
   inkscape:pageshadow="2"
   inkscape:window-width="1366"
   inkscape:window-height="706"
   id="namedview47"
   showgrid="false"
   inkscape:zoom="1.4385965"
   inkscape:cx="-12.902543"
   inkscape:cy="68.322034"
   inkscape:window-x="1912"
   inkscape:window-y="-8"
   inkscape:window-maximized="1"
   inkscape:current-layer="Capa_1" />
<g
   id="g14"
   transform="matrix(2.8302977,0,0,2.8301916,-1.4498642e-4,-1.415248)">
	<g
   id="g8">
		<path
   style="fill:#e8e8e7;fill-opacity:1"
   d="m 18.613,42.052 -7.907,4.313 c -0.464,0.253 -0.881,0.564 -1.269,0.903 4.61,3.887 10.561,6.232 17.063,6.232 6.454,0 12.367,-2.31 16.964,-6.144 -0.424,-0.358 -0.884,-0.68 -1.394,-0.934 l -8.467,-4.233 c -1.094,-0.547 -1.785,-1.665 -1.785,-2.888 v -3.322 c 0.238,-0.271 0.51,-0.619 0.801,-1.03 1.154,-1.63 2.027,-3.423 2.632,-5.304 1.086,-0.335 1.886,-1.338 1.886,-2.53 v -3.546 c 0,-0.78 -0.347,-1.477 -0.886,-1.965 v -5.126 c 0,0 1.053,-7.977 -9.75,-7.977 -10.803,0 -9.75,7.977 -9.75,7.977 v 5.126 c -0.54,0.488 -0.886,1.185 -0.886,1.965 v 3.546 c 0,0.934 0.491,1.756 1.226,2.231 0.886,3.857 3.206,6.633 3.206,6.633 v 3.24 c -0.001,1.18 -0.647,2.267 -1.684,2.833 z"
   id="path2"
   inkscape:connector-curvature="0" />
		<g
   id="g6">
			<path
   style="fill:#b51120;fill-opacity:1"
   d="M 26.953,0.504 C 12.32,0.254 0.254,11.914 0.004,26.547 -0.138,34.844 3.56,42.301 9.448,47.26 c 0.385,-0.336 0.798,-0.644 1.257,-0.894 l 7.907,-4.313 c 1.037,-0.566 1.683,-1.653 1.683,-2.835 v -3.24 c 0,0 -2.321,-2.776 -3.206,-6.633 -0.734,-0.475 -1.226,-1.296 -1.226,-2.231 v -3.546 c 0,-0.78 0.347,-1.477 0.886,-1.965 v -5.126 c 0,0 -1.053,-7.977 9.75,-7.977 10.803,0 9.75,7.977 9.75,7.977 v 5.126 c 0.54,0.488 0.886,1.185 0.886,1.965 v 3.546 c 0,1.192 -0.8,2.195 -1.886,2.53 -0.605,1.881 -1.478,3.674 -2.632,5.304 -0.291,0.411 -0.563,0.759 -0.801,1.03 V 39.3 c 0,1.223 0.691,2.342 1.785,2.888 l 8.467,4.233 c 0.508,0.254 0.967,0.575 1.39,0.932 5.71,-4.762 9.399,-11.882 9.536,-19.9 C 53.246,12.82 41.587,0.754 26.953,0.504 Z"
   id="path4"
   inkscape:connector-curvature="0" />
		</g>
	</g>
	<g
   id="g12">
		
	</g>
</g>
<g
   id="g16"
   transform="translate(0,92)">
</g>
<g
   id="g18"
   transform="translate(0,92)">
</g>
<g
   id="g20"
   transform="translate(0,92)">
</g>
<g
   id="g22"
   transform="translate(0,92)">
</g>
<g
   id="g24"
   transform="translate(0,92)">
</g>
<g
   id="g26"
   transform="translate(0,92)">
</g>
<g
   id="g28"
   transform="translate(0,92)">
</g>
<g
   id="g30"
   transform="translate(0,92)">
</g>
<g
   id="g32"
   transform="translate(0,92)">
</g>
<g
   id="g34"
   transform="translate(0,92)">
</g>
<g
   id="g36"
   transform="translate(0,92)">
</g>
<g
   id="g38"
   transform="translate(0,92)">
</g>
<g
   id="g40"
   transform="translate(0,92)">
</g>
<g
   id="g42"
   transform="translate(0,92)">
</g>
<g
   id="g44"
   transform="translate(0,92)">
</g>
</svg>