<?xml version="1.0" encoding="UTF-8" standalone="no"?>
<!-- Generator: Adobe Illustrator 18.1.1, SVG Export Plug-In . SVG Version: 6.00 Build 0)  -->

<svg
   xmlns:dc="http://purl.org/dc/elements/1.1/"
   xmlns:cc="http://creativecommons.org/ns#"
   xmlns:rdf="http://www.w3.org/1999/02/22-rdf-syntax-ns#"
   xmlns:svg="http://www.w3.org/2000/svg"
   xmlns="http://www.w3.org/2000/svg"
   xmlns:sodipodi="http://sodipodi.sourceforge.net/DTD/sodipodi-0.dtd"
   xmlns:inkscape="http://www.inkscape.org/namespaces/inkscape"
   version="1.1"
   id="Capa_1"
   x="0px"
   y="0px"
   viewBox="0 0 19.938 19.938"
   style="enable-background:new 0 0 19.938 19.938;"
   xml:space="preserve"
   sodipodi:docname="img-decomunisation.svg"
   inkscape:version="0.92.1 r15371"><metadata
   id="metadata41"><rdf:RDF><cc:Work
       rdf:about=""><dc:format>image/svg+xml</dc:format><dc:type
         rdf:resource="http://purl.org/dc/dcmitype/StillImage" /></cc:Work></rdf:RDF></metadata><defs
   id="defs39" /><sodipodi:namedview
   pagecolor="#ffffff"
   bordercolor="#666666"
   borderopacity="1"
   objecttolerance="10"
   gridtolerance="10"
   guidetolerance="10"
   inkscape:pageopacity="0"
   inkscape:pageshadow="2"
   inkscape:window-width="1366"
   inkscape:window-height="705"
   id="namedview37"
   showgrid="false"
   inkscape:zoom="11.836694"
   inkscape:cx="9.9689999"
   inkscape:cy="9.9689999"
   inkscape:window-x="1912"
   inkscape:window-y="-8"
   inkscape:window-maximized="1"
   inkscape:current-layer="Capa_1" />
<g
   id="g4"
   transform="translate(0.92931355,-0.08448305)">
	<path
   style="fill:#030104"
   d="m 15.141,9.195 c -0.154,0 -0.269,0 -0.401,-0.11 C 14.604,8.974 14.315,9.009 13.729,8.759 13.145,8.513 12.536,8.546 12.155,8.589 11.772,8.633 11.391,8.363 11.096,8.137 10.807,7.914 10.467,7.983 10.199,7.914 9.929,7.846 9.861,7.395 9.861,7.395 c 0.225,0.092 0.338,-0.09 0.472,-0.11 0.135,-0.023 0.202,-0.088 0.359,-0.113 0.158,-0.023 0.115,-0.18 0.136,-0.248 0.022,-0.066 -0.044,-0.223 -0.044,-0.223 0,0 -0.137,-0.18 -0.157,-0.291 C 10.604,6.297 10.424,6.137 10.38,6.07 10.333,6.002 10.153,6.025 10.064,5.824 9.974,5.621 9.793,5.758 9.613,5.731 9.433,5.711 9.368,5.758 9.187,5.779 9.007,5.8 8.851,6.115 8.827,6.453 8.805,6.789 8.917,7.127 8.917,7.127 L 8.94,7.42 C 8.94,7.42 8.894,7.352 8.692,7.106 8.491,6.857 8.378,6.521 8.153,6.207 7.93,5.891 7.95,5.758 7.885,5.195 7.817,4.631 7.547,4.25 7.503,4.068 7.455,3.89 7.593,3.777 7.593,3.62 7.593,3.466 7.569,3.376 7.455,3.284 7.346,3.193 7.188,2.855 7.188,2.855 V 2.607 c 0,0 1.213,0.261 1.089,-0.932 C 8.137,0.299 6.38,0 6.38,0 c 0,0 1.516,0.576 1.516,1.584 0,1.014 -0.978,0.688 -0.978,0.688 L 6.871,2.834 6.693,2.812 c 0,0 -0.045,-0.135 0.044,-0.248 C 6.827,2.452 6.693,2.382 6.693,2.294 6.693,2.202 6.648,2.091 6.558,1.978 6.467,1.865 6.38,1.756 6.38,1.756 L 6.355,1.439 6.558,1.327 6.535,0.678 h -0.45 l -0.27,0.291 0.047,0.559 0.291,-0.02 v 0.293 c 0,0 -0.182,0.113 -0.247,0.27 -0.067,0.156 0,0.404 0.022,0.562 C 5.952,2.789 6.131,3.08 6.175,3.238 6.221,3.394 6.11,4.429 6.154,4.968 6.161,5.025 6.165,5.085 6.172,5.144 6.013,4.99 5.791,4.948 5.478,4.99 5.165,5.037 5.098,5.194 5.051,5.869 c -0.046,0.674 0.202,0.92 0.202,0.92 0,0 -0.021,0.092 -0.088,0.518 -0.067,0.427 -0.362,0.382 -0.629,0.494 -0.273,0.113 -0.179,0.562 0.02,1.283 0.202,0.717 0.809,2.182 0.809,2.182 0,0 -0.021,0.178 -0.067,0.312 -0.044,0.135 -0.02,0.428 -0.02,0.428 0,0 -0.205,0.111 -0.34,0.201 -0.136,0.09 -0.18,0.271 -0.136,0.381 0.048,0.113 0.113,0.27 0.092,0.406 -0.022,0.135 0.204,0.336 0.315,0.426 0.113,0.092 0.134,0.227 0.134,0.227 0,0 -0.046,0.338 -0.065,0.494 -0.024,0.156 0.065,0.203 0.111,0.515 0.045,0.317 0.225,2.362 0.225,2.655 0,0.291 -0.044,0.271 -0.18,0.404 -0.067,0.066 -0.14,0.166 -0.195,0.25 C 4.922,17.982 4.657,18 4.513,18.016 v 1.922 h 9.188 V 18.73 l -0.519,-0.104 c 0.002,-0.004 0.004,-0.008 0.004,-0.013 0.025,-0.137 -0.178,-0.067 -0.334,-0.178 -0.158,-0.112 -0.316,-0.43 -0.404,-0.877 -0.092,-0.451 -0.225,-1.238 -0.225,-1.238 0,0 0.225,-0.022 0.402,-0.045 0.178,-0.021 -0.021,-0.182 -0.021,-0.182 0,0 0.27,-0.178 0.337,-0.492 0.067,-0.313 -0.358,-0.338 -0.358,-0.338 0,0 0.447,-0.246 0.491,-0.471 0.048,-0.226 -0.179,-0.16 -0.356,-0.293 -0.182,-0.133 -0.045,-0.314 -0.158,-0.695 -0.11,-0.385 -0.719,-0.137 -0.741,-0.406 -0.022,-0.269 -0.383,-0.518 -0.383,-0.518 0,0 -0.114,-0.112 -0.07,-0.38 0.046,-0.271 -0.471,-0.519 -0.426,-0.877 0.044,-0.357 -0.607,-0.922 -0.607,-0.922 0,0 0,-0.158 0,-0.539 0,-0.381 0.248,-0.787 0.248,-0.787 0,0 0.723,-0.021 1.012,-0.021 0.295,0 0.201,0.09 0.586,0.133 0.381,0.048 0.713,0.009 1.186,-0.034 0.47,-0.051 0.993,0.123 1.217,0.147 0.226,0.023 0.226,0.383 0.292,0.404 0.069,0.021 0.316,0.09 0.493,-0.066 C 15.55,9.783 15.55,9.69 15.571,9.444 15.595,9.195 15.302,9.195 15.141,9.195 Z M 6.266,7.127 6.063,6.588 6.326,6.063 c 0.019,0.105 0.029,0.195 0.029,0.254 0,0.226 -0.089,0.81 -0.089,0.81 z M 7.777,4.91 c 0.057,0.287 0.021,0.846 0.021,0.846 0,0 -0.088,-0.603 -0.12,-0.803 C 7.643,4.754 7.421,4.264 7.421,4.264 c 0,0 0.302,0.357 0.356,0.646 z M 7.188,17.559 c -0.091,0.086 -0.215,0.229 -0.307,0.332 -0.109,0.004 -0.229,0.012 -0.347,0.012 v -0.549 l 0.202,-0.987 c 0,0 0.247,0.428 0.382,0.651 0.137,0.224 0.228,0.382 0.07,0.541 z M 7.805,9.762 c 0.166,0.336 0.197,0.523 0.181,0.658 -0.017,0.137 0.034,0.27 0.034,0.27 0,0 -0.186,-0.032 -0.286,0.035 C 7.631,10.789 7.547,10.91 7.498,10.91 7.447,10.91 7.363,10.826 7.261,10.557 7.157,10.285 7.092,9.912 7.157,9.223 7.227,8.533 7.276,8.061 7.329,7.791 7.379,7.52 7.242,7.27 7.227,6.948 7.209,6.629 7.209,5.869 7.209,5.869 c 0,0 0.1,0.371 0.202,0.571 0.101,0.205 0.119,0.474 0.304,0.83 0.187,0.354 0.287,0.656 0.338,0.859 0.05,0.201 0.067,0.369 0.067,0.369 0,0 -0.21,0.075 -0.451,0.522 -0.084,0.158 -0.034,0.404 0.136,0.742 z m 3.338,6.424 c 0.201,0.135 0.494,0.832 0.539,1.078 0.045,0.246 -0.045,0.113 -0.111,0.316 -0.069,0.201 0.246,0.448 0.402,0.631 0.064,0.07 0.11,0.141 0.152,0.197 l -1.227,-0.25 -0.891,0.068 -0.975,-0.164 C 9.032,18.005 9.018,17.931 8.984,17.849 8.915,17.693 8.781,17.509 8.602,17.287 8.423,17.061 8.129,16.254 8.129,16.254 c 0,0 0.313,0.065 0.517,0.135 0.204,0.069 0.382,-0.022 0.517,-0.022 0.136,0 0.336,-0.158 0.36,-0.271 0.021,-0.111 0.067,-0.178 0.181,-0.268 0.111,-0.093 0.223,0 0.47,0.135 0.25,0.131 0.766,0.088 0.969,0.223 z m 2.352,-7.293 c -0.434,-0.111 -1.033,-0.211 -1.301,-0.2 0,0 0.456,-0.123 0.936,-0.012 0.48,0.111 0.721,0.256 0.879,0.291 0.154,0.031 0.479,0.111 0.479,0.111 0,0 -0.559,-0.079 -0.993,-0.19 z"
   id="path2"
   inkscape:connector-curvature="0" />
</g>
<g
   id="g6">
</g>
<g
   id="g8">
</g>
<g
   id="g10">
</g>
<g
   id="g12">
</g>
<g
   id="g14">
</g>
<g
   id="g16">
</g>
<g
   id="g18">
</g>
<g
   id="g20">
</g>
<g
   id="g22">
</g>
<g
   id="g24">
</g>
<g
   id="g26">
</g>
<g
   id="g28">
</g>
<g
   id="g30">
</g>
<g
   id="g32">
</g>
<g
   id="g34">
</g>
<path
   style="fill:none;stroke:#000000;stroke-width:1.14252973px;stroke-linecap:butt;stroke-linejoin:miter;stroke-opacity:1"
   d="M 2.6693664,2.5848834 17.437599,17.353116"
   id="path4518"
   inkscape:connector-curvature="0" /><path
   inkscape:connector-curvature="0"
   id="path4520"
   d="M 17.4376,2.5004009 2.6693659,17.268632"
   style="fill:none;stroke:#000000;stroke-width:1.14252973px;stroke-linecap:butt;stroke-linejoin:miter;stroke-opacity:1" /></svg>