<?xml version="1.0" encoding="UTF-8" standalone="no"?>
<!-- Generator: Adobe Illustrator 18.1.1, SVG Export Plug-In . SVG Version: 6.00 Build 0)  -->

<svg
   xmlns:dc="http://purl.org/dc/elements/1.1/"
   xmlns:cc="http://creativecommons.org/ns#"
   xmlns:rdf="http://www.w3.org/1999/02/22-rdf-syntax-ns#"
   xmlns:svg="http://www.w3.org/2000/svg"
   xmlns="http://www.w3.org/2000/svg"
   xmlns:sodipodi="http://sodipodi.sourceforge.net/DTD/sodipodi-0.dtd"
   xmlns:inkscape="http://www.inkscape.org/namespaces/inkscape"
   version="1.1"
   id="Capa_1"
   x="0px"
   y="0px"
   viewBox="0 0 14 14"
   style="enable-background:new 0 0 14 14;"
   xml:space="preserve"
   sodipodi:docname="ico-phone.svg"
   inkscape:version="0.92.1 r15371"><metadata
   id="metadata49"><rdf:RDF><cc:Work
       rdf:about=""><dc:format>image/svg+xml</dc:format><dc:type
         rdf:resource="http://purl.org/dc/dcmitype/StillImage" /><dc:title></dc:title></cc:Work></rdf:RDF></metadata><defs
   id="defs47" /><sodipodi:namedview
   pagecolor="#ffffff"
   bordercolor="#666666"
   borderopacity="1"
   objecttolerance="10"
   gridtolerance="10"
   guidetolerance="10"
   inkscape:pageopacity="0"
   inkscape:pageshadow="2"
   inkscape:window-width="1366"
   inkscape:window-height="705"
   id="namedview45"
   showgrid="false"
   inkscape:zoom="11.9198"
   inkscape:cx="27.306751"
   inkscape:cy="8.2984779"
   inkscape:window-x="-8"
   inkscape:window-y="-8"
   inkscape:window-maximized="1"
   inkscape:current-layer="Capa_1" />

<g
   id="g14">
</g>
<g
   id="g16">
</g>
<g
   id="g18">
</g>
<g
   id="g20">
</g>
<g
   id="g22">
</g>
<g
   id="g24">
</g>
<g
   id="g26">
</g>
<g
   id="g28">
</g>
<g
   id="g30">
</g>
<g
   id="g32">
</g>
<g
   id="g34">
</g>
<g
   id="g36">
</g>
<g
   id="g38">
</g>
<g
   id="g40">
</g>
<g
   id="g42">
</g>
<g
   id="g4590"
   transform="matrix(0.04022103,0,0,0.04022103,1.3986542e-5,0.01581427)"
   style="fill:#e8c769;fill-opacity:1"><g
     id="g4532"
     style="fill:#e8c769;fill-opacity:1">
	<g
   id="g4530"
   style="fill:#e8c769;fill-opacity:1">
		<g
   id="g4528"
   style="fill:#e8c769;fill-opacity:1">
			<path
   id="path4526"
   d="M 340.273,275.083 286.518,221.322 C 275.811,210.658 258.08,210.982 247,222.066 l -27.082,27.076 c -1.711,-0.943 -3.482,-1.928 -5.344,-2.973 -17.102,-9.476 -40.509,-22.464 -65.14,-47.113 -24.704,-24.701 -37.704,-48.144 -47.209,-65.257 -1.003,-1.813 -1.964,-3.561 -2.913,-5.221 l 18.176,-18.149 8.936,-8.947 c 11.097,-11.1 11.403,-28.826 0.721,-39.521 L 73.39,8.194 C 62.708,-2.486 44.969,-2.162 33.872,8.938 l -15.15,15.237 0.414,0.411 C 14.056,31.068 9.811,38.544 6.652,46.606 3.74,54.28 1.927,61.603 1.098,68.941 -6,127.785 20.89,181.564 93.866,254.541 c 100.875,100.868 182.167,93.248 185.674,92.876 7.638,-0.913 14.958,-2.738 22.397,-5.627 7.992,-3.122 15.463,-7.361 21.941,-12.43 l 0.331,0.294 15.348,-15.029 c 11.074,-11.098 11.393,-28.83 0.716,-39.542 z"
   inkscape:connector-curvature="0"
   style="fill:#e8c769;fill-opacity:1" />
		</g>
	</g>
</g><g
     id="g4534"
     style="fill:#e8c769;fill-opacity:1">
</g><g
     id="g4536"
     style="fill:#e8c769;fill-opacity:1">
</g><g
     id="g4538"
     style="fill:#e8c769;fill-opacity:1">
</g><g
     id="g4540"
     style="fill:#e8c769;fill-opacity:1">
</g><g
     id="g4542"
     style="fill:#e8c769;fill-opacity:1">
</g><g
     id="g4544"
     style="fill:#e8c769;fill-opacity:1">
</g><g
     id="g4546"
     style="fill:#e8c769;fill-opacity:1">
</g><g
     id="g4548"
     style="fill:#e8c769;fill-opacity:1">
</g><g
     id="g4550"
     style="fill:#e8c769;fill-opacity:1">
</g><g
     id="g4552"
     style="fill:#e8c769;fill-opacity:1">
</g><g
     id="g4554"
     style="fill:#e8c769;fill-opacity:1">
</g><g
     id="g4556"
     style="fill:#e8c769;fill-opacity:1">
</g><g
     id="g4558"
     style="fill:#e8c769;fill-opacity:1">
</g><g
     id="g4560"
     style="fill:#e8c769;fill-opacity:1">
</g><g
     id="g4562"
     style="fill:#e8c769;fill-opacity:1">
</g></g></svg>