<?xml version="1.0" encoding="iso-8859-1"?>
<!-- Generator: Adobe Illustrator 19.0.0, SVG Export Plug-In . SVG Version: 6.00 Build 0)  -->
<svg version="1.1" id="Capa_1" xmlns="http://www.w3.org/2000/svg" xmlns:xlink="http://www.w3.org/1999/xlink" x="0px" y="0px"
	 viewBox="0 0 512.001 512.001" style="enable-background:new 0 0 512.001 512.001;" xml:space="preserve">
<g>
	<g>
		<path d="M457.023,298.362V33.932c0-5.523-4.477-10-10-10H326.107C325.936,10.707,315.132,0,301.868,0h-91.739
			c-13.263,0-24.067,10.707-24.238,23.932H64.977c-5.523,0-10,4.477-10,10v264.431c-10.431,2.709-18.155,12.205-18.155,23.472v9.682
			c0,13.37,10.877,24.248,24.247,24.248h54.114L70.74,499.038c-0.941,3.035-0.384,6.336,1.501,8.895
			c1.885,2.559,4.873,4.068,8.051,4.068h39.97c4.382,0,8.253-2.852,9.551-7.037l46.281-149.199h50.818V502c0,5.523,4.477,10,10,10
			h38.177c5.524,0,10-4.477,10-10V355.765h50.818l46.281,149.199c1.298,4.185,5.169,7.037,9.551,7.037h39.973
			c3.177,0,6.166-1.51,8.051-4.068c1.885-2.559,2.441-5.859,1.5-8.895L396.82,355.765h54.114c13.369,0,24.246-10.878,24.246-24.248
			v-9.682C475.179,310.567,467.454,301.071,457.023,298.362z M437.023,274.311v23.275H74.977v-23.275H437.023z M437.022,254.312
			H74.977v-43.763l95.767-82.876l96.045,87.168c1.915,1.738,4.32,2.595,6.718,2.595c2.722,0,5.435-1.105,7.407-3.279
			c3.712-4.09,3.405-10.414-0.684-14.125l-4.027-3.655l56.773-48.597l104.046,72.782V254.312z M205.883,24.248
			c0-2.302,1.944-4.248,4.246-4.248h91.739c2.302,0,4.246,1.945,4.246,4.248v9.684c0,2.302-1.944,4.246-4.246,4.246h-91.739
			c-2.302,0-4.246-1.944-4.246-4.246V24.248z M74.975,43.932H188.05c3.817,8.392,12.274,14.246,22.079,14.246h91.739
			c9.805,0,18.262-5.854,22.079-14.246h113.075v152.222l-98.931-69.204c-3.737-2.614-8.77-2.369-12.235,0.598l-64.581,55.281
			l-83.654-75.922c-3.746-3.4-9.44-3.467-13.265-0.157l-89.381,77.349V43.932z M112.893,492h-19.03l42.26-136.236h19.029
			L112.893,492z M265.088,492h-18.177V355.765h18.177V492z M418.139,492h-19.032l-42.259-136.236h19.031L418.139,492z
			 M455.179,331.517c0,2.302-1.944,4.248-4.246,4.248H61.069c-2.303,0-4.247-1.945-4.247-4.248v-9.682
			c0-2.303,1.944-4.248,4.247-4.248h3.908h382.046h3.91c2.302,0,4.246,1.945,4.246,4.248V331.517z"/>
	</g>
</g>
<g>
	<g>
		<path d="M301.535,219.365l-0.193-0.173c-4.112-3.686-10.435-3.341-14.121,0.771c-3.688,4.112-3.342,10.435,0.77,14.121
			l0.193,0.173c1.909,1.712,4.295,2.554,6.672,2.554c2.742,0,5.475-1.122,7.449-3.325
			C305.992,229.374,305.647,223.052,301.535,219.365z"/>
	</g>
</g>
<g>
	<g>
		<path d="M259.962,79.834c-16.428,0-29.792,13.365-29.792,29.792c0,16.427,13.364,29.791,29.792,29.791
			c16.427,0,29.792-13.364,29.792-29.791S276.389,79.834,259.962,79.834z M259.962,119.418c-5.399,0-9.792-4.393-9.792-9.792
			c0-5.399,4.393-9.792,9.792-9.792c5.4,0,9.792,4.393,9.792,9.792C269.754,115.025,265.362,119.418,259.962,119.418z"/>
	</g>
</g>
<g>
</g>
<g>
</g>
<g>
</g>
<g>
</g>
<g>
</g>
<g>
</g>
<g>
</g>
<g>
</g>
<g>
</g>
<g>
</g>
<g>
</g>
<g>
</g>
<g>
</g>
<g>
</g>
<g>
</g>
</svg>
