<?xml version="1.0" encoding="iso-8859-1"?>
<!-- Generator: Adobe Illustrator 19.0.0, SVG Export Plug-In . SVG Version: 6.00 Build 0)  -->
<svg version="1.1" id="Capa_1" xmlns="http://www.w3.org/2000/svg" xmlns:xlink="http://www.w3.org/1999/xlink" x="0px" y="0px"
	 viewBox="0 0 512 512" style="enable-background:new 0 0 512 512;" xml:space="preserve">
<g>
	<g>
		<path d="M410.727,249.154c-4.201,0-7.606,3.406-7.606,7.606v206.882H163.785c-4.201,0-7.606,3.406-7.606,7.606
			s3.406,7.606,7.606,7.606h246.942c4.201,0,7.606-3.406,7.606-7.606V256.761C418.333,252.56,414.928,249.154,410.727,249.154z"/>
	</g>
</g>
<g>
	<g>
		<path d="M302.718,178.811H104.962V141.54c0-28.935-23.544-52.474-52.484-52.474c-28.842,0-52.324,23.389-52.473,52.197
			C0.002,141.356,0,141.449,0,141.544v284.832c0,0.095,0.002,0.191,0.005,0.285c0.157,28.806,23.635,52.195,52.473,52.195h85.952
			c4.201,0,7.606-3.406,7.606-7.606s-3.406-7.606-7.606-7.606H52.478c-20.545,0-37.261-16.72-37.261-37.271
			c0-20.545,16.715-37.261,37.261-37.261c20.551,0,37.271,16.715,37.271,37.261c0,4.201,3.406,7.606,7.606,7.606
			s7.606-3.406,7.606-7.606V194.023h197.756c4.201,0,7.606-3.406,7.606-7.606C310.324,182.216,306.918,178.811,302.718,178.811z
			 M89.749,389.462c-9.517-9.606-22.712-15.565-37.271-15.565c-14.558,0-27.75,5.959-37.265,15.566V141.8
			c0.003-0.086,0.004-0.173,0.004-0.261c0-20.546,16.715-37.261,37.261-37.261c20.551,0,37.271,16.715,37.271,37.261V389.462z"/>
	</g>
</g>
<g>
	<g>
		<path d="M174.665,247.253l14.017-14.017c2.971-2.971,2.971-7.787,0-10.756c-2.97-2.971-7.786-2.971-10.756,0l-14.017,14.017
			l-14.017-14.017c-2.971-2.971-7.787-2.971-10.756,0c-2.971,2.971-2.971,7.787,0,10.756l14.017,14.017l-14.017,14.017
			c-2.971,2.971-2.971,7.787,0,10.756c1.485,1.486,3.432,2.228,5.378,2.228c1.946,0,3.893-0.742,5.378-2.228l14.017-14.017
			l14.017,14.017c1.485,1.485,3.432,2.228,5.378,2.228c1.946,0,3.893-0.742,5.378-2.228c2.971-2.971,2.971-7.787,0-10.756
			L174.665,247.253z"/>
	</g>
</g>
<g>
	<g>
		<path d="M201.21,391.052c-0.915-2.895-1.379-5.638-1.379-8.154c0-2.115,0.312-4.069,0.954-5.974
			c1.344-3.981-0.795-8.296-4.776-9.638c-3.981-1.342-8.296,0.796-9.638,4.776c-1.163,3.448-1.754,7.094-1.754,10.836
			c0,4.074,0.702,8.36,2.086,12.74c1.025,3.243,4.021,5.315,7.25,5.315c0.76,0,1.532-0.115,2.295-0.356
			C200.255,399.331,202.476,395.058,201.21,391.052z"/>
	</g>
</g>
<g>
	<g>
		<path d="M348.851,258.011c-4.957-4.533-11.341-8.291-18.975-11.171c-3.932-1.482-8.319,0.502-9.802,4.433
			c-1.482,3.93,0.502,8.319,4.433,9.802c5.818,2.195,10.555,4.941,14.08,8.163c1.459,1.335,3.297,1.993,5.131,1.993
			c2.061,0,4.116-0.833,5.615-2.474C352.167,265.657,351.952,260.846,348.851,258.011z"/>
	</g>
</g>
<g>
	<g>
		<path d="M354.509,281.3c-0.024,0-0.049,0-0.073,0c-4.167,0-7.566,3.359-7.604,7.535c-0.037,4.005-1.85,7.508-5.703,11.022
			c-3.104,2.832-3.325,7.642-0.494,10.745c1.5,1.646,3.558,2.481,5.622,2.481c1.83,0,3.665-0.656,5.124-1.987
			c6.998-6.382,10.585-13.825,10.662-22.12C362.084,284.776,358.71,281.339,354.509,281.3z"/>
	</g>
</g>
<g>
	<g>
		<path d="M226.398,426.758c-4.713-4.774-8.863-9.395-12.332-13.737c-2.622-3.281-7.408-3.815-10.69-1.194
			c-3.282,2.623-3.816,7.409-1.194,10.69c3.801,4.755,8.306,9.779,13.392,14.929c1.488,1.507,3.45,2.262,5.413,2.262
			c1.93,0,3.862-0.73,5.344-2.194C229.318,434.563,229.35,429.746,226.398,426.758z"/>
	</g>
</g>
<g>
	<g>
		<path d="M328.608,316.375c-1.477-3.933-5.861-5.924-9.794-4.449c-5.02,1.884-10.844,3.786-17.805,5.816
			c-4.033,1.176-6.349,5.398-5.173,9.431c0.969,3.322,4.004,5.48,7.299,5.48c0.705,0,1.422-0.099,2.133-0.306
			c7.332-2.138,13.511-4.158,18.891-6.177C328.091,324.693,330.083,320.308,328.608,316.375z"/>
	</g>
</g>
<g>
	<g>
		<path d="M259.453,247.556c-0.39-4.184-4.1-7.263-8.281-6.866c-11.646,1.087-19.415,2.436-19.74,2.493
			c-4.137,0.724-6.904,4.664-6.18,8.801c0.646,3.696,3.858,6.298,7.485,6.298c0.434,0,0.874-0.038,1.315-0.115
			c0.074-0.013,7.543-1.305,18.534-2.332C256.769,255.446,259.843,251.738,259.453,247.556z"/>
	</g>
</g>
<g>
	<g>
		<path d="M300.278,240.38c-6.212-0.637-12.935-0.982-19.981-1.025c-0.016,0-0.031,0-0.048,0c-4.178,0-7.579,3.374-7.605,7.56
			c-0.025,4.201,3.359,7.628,7.56,7.653c6.562,0.041,12.794,0.359,18.524,0.946c0.263,0.027,0.524,0.041,0.784,0.041
			c3.852,0,7.156-2.916,7.558-6.832C307.497,244.543,304.456,240.809,300.278,240.38z"/>
	</g>
</g>
<g>
	<g>
		<path d="M283.016,330.534c-1.059-4.066-5.213-6.5-9.277-5.445c-6.361,1.656-12.585,3.286-18.784,5.015
			c-4.047,1.13-6.411,5.324-5.282,9.371c0.938,3.363,3.995,5.564,7.322,5.564c0.676,0,1.365-0.091,2.049-0.282
			c6.081-1.697,12.233-3.308,18.526-4.946C281.637,338.753,284.075,334.599,283.016,330.534z"/>
	</g>
</g>
<g>
	<g>
		<path d="M237.018,343.395c-1.509-3.922-5.914-5.876-9.83-4.367c-7.271,2.797-13.345,5.648-18.569,8.715
			c-3.623,2.127-4.836,6.787-2.709,10.411c1.416,2.413,3.957,3.757,6.567,3.757c1.308,0,2.634-0.338,3.844-1.048
			c4.501-2.642,9.843-5.14,16.33-7.637C236.571,351.717,238.526,347.316,237.018,343.395z"/>
	</g>
</g>
<g>
	<g>
		<path d="M488.08,69.075c-2.713-3.208-7.511-3.609-10.72-0.897c-3.208,2.713-3.609,7.512-0.897,10.72
			c13.106,15.499,20.324,35.232,20.324,55.562c0,47.477-38.626,86.103-86.103,86.103c-47.477,0-86.103-38.626-86.103-86.103
			c0-47.477,38.625-86.103,86.103-86.103c17.256,0,33.901,5.083,48.135,14.701c3.482,2.353,8.21,1.437,10.562-2.045
			c2.351-3.481,1.436-8.21-2.045-10.562c-16.759-11.322-36.349-17.307-56.652-17.307c-55.865,0-101.316,45.45-101.316,101.316
			c0,55.866,45.449,101.316,101.316,101.316S512,190.327,512,134.461C512,110.537,503.505,87.316,488.08,69.075z"/>
	</g>
</g>
<g>
	<g>
		<path d="M458.374,172.246l-23.389-57.884c-0.773-1.913-2.29-3.43-4.203-4.203l-57.885-23.388
			c-2.829-1.144-6.069-0.485-8.228,1.673c-2.159,2.158-2.817,5.397-1.673,8.228l23.388,57.885c0.773,1.913,2.29,3.43,4.203,4.203
			l57.885,23.388c0.923,0.373,1.889,0.554,2.848,0.554c1.98,0,3.926-0.774,5.38-2.228
			C458.858,178.316,459.517,175.077,458.374,172.246z M399.279,145.866l-15.465-38.277l38.277,15.465l15.465,38.277L399.279,145.866
			z"/>
	</g>
</g>
<g>
	<g>
		<path d="M374.975,406.598h-26.62v-26.62c0-4.201-3.406-7.606-7.606-7.606c-4.201,0-7.606,3.406-7.606,7.606v26.62h-26.621
			c-4.201,0-7.606,3.406-7.606,7.606s3.406,7.606,7.606,7.606h26.621v26.621c0,4.201,3.406,7.606,7.606,7.606
			c4.201,0,7.606-3.406,7.606-7.606V421.81h26.62c4.201,0,7.606-3.406,7.606-7.606S379.176,406.598,374.975,406.598z"/>
	</g>
</g>
<g>
	<g>
		<path d="M323.443,435.209c-1.452-3.137-4.989-4.946-8.386-4.264c-3.449,0.734-6.02,3.731-6.111,7.277
			c-0.08,3.098,1.823,6.026,4.692,7.205C319.91,448.006,326.295,441.371,323.443,435.209z"/>
	</g>
</g>
<g>
	<g>
		<path d="M371.972,387.092c-1.176-2.785-3.918-4.66-6.951-4.692c-3.347-0.036-6.362,2.202-7.347,5.39
			c-0.909,2.941,0.145,6.288,2.567,8.182c2.549,1.994,6.154,2.16,8.865,0.396C372.124,394.404,373.381,390.423,371.972,387.092z"/>
	</g>
</g>
<g>
	<g>
		<path d="M323.377,386.665c-1.345-2.756-4.328-4.471-7.387-4.246c-3.306,0.243-6.131,2.679-6.857,5.911
			c-0.794,3.533,1.11,7.337,4.504,8.692C319.974,399.698,326.365,392.79,323.377,386.665z"/>
	</g>
</g>
<g>
	<g>
		<path d="M371.272,434.18c-1.6-2.43-4.627-3.748-7.499-3.291c-3.454,0.552-6.15,3.469-6.403,6.958
			c-0.497,6.861,8.083,10.813,12.958,5.936C372.876,441.237,373.246,437.179,371.272,434.18z"/>
	</g>
</g>
<g>
</g>
<g>
</g>
<g>
</g>
<g>
</g>
<g>
</g>
<g>
</g>
<g>
</g>
<g>
</g>
<g>
</g>
<g>
</g>
<g>
</g>
<g>
</g>
<g>
</g>
<g>
</g>
<g>
</g>
</svg>
