<?xml version="1.0" encoding="iso-8859-1"?>
<!-- Generator: Adobe Illustrator 19.0.0, SVG Export Plug-In . SVG Version: 6.00 Build 0)  -->
<svg version="1.1" id="Capa_1" xmlns="http://www.w3.org/2000/svg" xmlns:xlink="http://www.w3.org/1999/xlink" x="0px" y="0px"
	 viewBox="0 0 508 508" style="enable-background:new 0 0 508 508;" xml:space="preserve">
<g>
	<g>
		<path d="M102.5,98.3v131.1h98.3V98.3H102.5z M184.4,213h-65.5v-98.3h65.5V213z"/>
	</g>
</g>
<g>
	<g>
		<rect x="233.5" y="98.3" width="114.7" height="16.4"/>
	</g>
</g>
<g>
	<g>
		<rect x="233.5" y="155.7" width="114.7" height="16.4"/>
	</g>
</g>
<g>
	<g>
		<rect x="233.5" y="213" width="114.7" height="16.4"/>
	</g>
</g>
<g>
	<g>
		<rect x="102.4" y="270.4" width="245.8" height="16.4"/>
	</g>
</g>
<g>
	<g>
		<rect x="102.4" y="327.7" width="188.5" height="16.4"/>
	</g>
</g>
<g>
	<g>
		<rect x="102.4" y="426.1" width="114.7" height="16.4"/>
	</g>
</g>
<g>
	<g>
		<path d="M491.9,225c-13.7-13.6-40.2-17.8-57.9,0l-36.6,36.6V49.2h-49.2V0H4.1v458.8h49.2V508h344.1V377.5l94.5-94.5
			C507.9,267,507.9,241,491.9,225z M53.3,442.5H20.5V16.4h311.4v32.8H53.3V442.5z M69.7,491.6V65.5H381V278L246.8,412.2l-14.5,72.4
			l72.4-14.5l76.2-76.3v97.8H69.7z M266,416.2l23.2-23.2l34.8,34.8L300.7,451L266,416.2z M284.1,457.5l-30.9,6.2l6.2-30.9
			L284.1,457.5z M335.5,416.2l-34.8-34.8l139-139.1l34.8,34.8L335.5,416.2z M485.1,264.5L452.5,232c9.1-4.1,20.6-2.6,27.8,4.7
			C487.9,244.2,489.4,255.4,485.1,264.5z"/>
	</g>
</g>
<g>
	<g>
		<rect x="375.65" y="292.146" transform="matrix(0.7071 -0.7071 0.7071 0.7071 -90.3577 382.5498)" width="81.899" height="16.4"/>
	</g>
</g>
<g>
</g>
<g>
</g>
<g>
</g>
<g>
</g>
<g>
</g>
<g>
</g>
<g>
</g>
<g>
</g>
<g>
</g>
<g>
</g>
<g>
</g>
<g>
</g>
<g>
</g>
<g>
</g>
<g>
</g>
</svg>
