<?xml version="1.0" encoding="UTF-8" standalone="no"?>
<!-- Generator: Adobe Illustrator 16.0.0, SVG Export Plug-In . SVG Version: 6.00 Build 0)  -->

<svg
   xmlns:dc="http://purl.org/dc/elements/1.1/"
   xmlns:cc="http://creativecommons.org/ns#"
   xmlns:rdf="http://www.w3.org/1999/02/22-rdf-syntax-ns#"
   xmlns:svg="http://www.w3.org/2000/svg"
   xmlns="http://www.w3.org/2000/svg"
   xmlns:sodipodi="http://sodipodi.sourceforge.net/DTD/sodipodi-0.dtd"
   xmlns:inkscape="http://www.inkscape.org/namespaces/inkscape"
   version="1.1"
   id="Capa_1"
   x="0px"
   y="0px"
   width="612px"
   height="612px"
   viewBox="0 0 612 612"
   style="enable-background:new 0 0 612 612;"
   xml:space="preserve"
   sodipodi:docname="icon-tw-ц.svg"
   inkscape:version="0.92.1 r15371"><metadata
   id="metadata41"><rdf:RDF><cc:Work
       rdf:about=""><dc:format>image/svg+xml</dc:format><dc:type
         rdf:resource="http://purl.org/dc/dcmitype/StillImage" /><dc:title></dc:title></cc:Work></rdf:RDF></metadata><defs
   id="defs39" /><sodipodi:namedview
   pagecolor="#ffffff"
   bordercolor="#666666"
   borderopacity="1"
   objecttolerance="10"
   gridtolerance="10"
   guidetolerance="10"
   inkscape:pageopacity="0"
   inkscape:pageshadow="2"
   inkscape:window-width="640"
   inkscape:window-height="480"
   id="namedview37"
   showgrid="false"
   inkscape:zoom="0.38562092"
   inkscape:cx="306"
   inkscape:cy="306"
   inkscape:window-x="0"
   inkscape:window-y="0"
   inkscape:window-maximized="0"
   inkscape:current-layer="Capa_1" />
<g
   id="g4"
   style="fill:#ffffff">
	<path
   d="M612,306C612,137.004,474.995,0,306,0C137.004,0,0,137.004,0,306c0,168.995,137.004,306,306,306   C474.995,612,612,474.995,612,306z M141.233,414.741c5.286,0.668,10.682,1.029,16.135,1.029   c31.685,0.056,60.838-11.378,83.955-30.572c-29.599-0.695-54.551-21.614-63.147-50.323c4.117,0.862,8.374,1.363,12.713,1.392   c6.176,0.027,12.129-0.808,17.804-2.421c-30.934-6.843-54.245-36.191-54.245-71.159c0-0.306,0-0.612,0-0.918   c9.124,5.508,19.528,8.846,30.627,9.347c-18.109-13.103-30.043-35.357-30.043-60.394c0-13.241,3.338-25.593,9.152-36.164   c33.354,44.092,83.176,73.356,139.341,77c-1.168-5.257-1.753-10.738-1.753-16.329c0-39.53,30.267-71.075,67.599-70.463   c19.444,0.334,37.025,9.263,49.35,23.284c15.411-2.949,29.876-8.624,42.923-16.552c-5.035,16.496-15.772,30.238-29.737,38.834   c13.687-1.53,26.705-5.146,38.834-10.626c-9.068,14.104-20.53,26.427-33.743,36.275c0.139,3.06,0.194,6.12,0.194,9.18   c0,93.859-68.016,202.099-192.363,202.043C206.689,447.232,171.138,435.271,141.233,414.741z"
   id="path2"
   style="fill:#ffffff" />
</g>
<g
   id="g6">
</g>
<g
   id="g8">
</g>
<g
   id="g10">
</g>
<g
   id="g12">
</g>
<g
   id="g14">
</g>
<g
   id="g16">
</g>
<g
   id="g18">
</g>
<g
   id="g20">
</g>
<g
   id="g22">
</g>
<g
   id="g24">
</g>
<g
   id="g26">
</g>
<g
   id="g28">
</g>
<g
   id="g30">
</g>
<g
   id="g32">
</g>
<g
   id="g34">
</g>
</svg>